<?xml version="1.0" encoding="UTF-8" ?>
<!DOCTYPE svg PUBLIC "-//W3C//DTD SVG 1.1//EN" "http://www.w3.org/Graphics/SVG/1.1/DTD/svg11.dtd">
<svg width="237pt" height="237pt" viewBox="0 0 677 677" version="1.1" xmlns="http://www.w3.org/2000/svg">
<g id="#fbd11aff">
<path fill="#fbd11a" opacity="1.00" d=" M 0.00 0.00 L 0.06 0.00 C 0.05 0.02 0.02 0.05 0.00 0.06 L 0.00 0.00 Z" />
<path fill="#fbd11a" opacity="1.00" d=" M 340.23 93.79 C 340.73 93.68 341.72 93.44 342.22 93.32 C 349.43 100.11 356.06 107.53 363.57 113.99 C 365.03 117.79 363.75 121.77 363.51 125.65 C 363.26 128.82 363.21 132.00 363.11 135.17 C 362.58 135.27 361.53 135.46 361.00 135.56 C 355.24 129.97 348.89 125.04 343.07 119.53 C 342.30 119.49 341.53 119.44 340.77 119.40 C 334.48 125.29 327.79 130.75 321.39 136.52 C 320.97 136.57 320.12 136.67 319.70 136.73 C 318.74 131.54 318.00 126.27 318.20 120.98 C 318.18 119.92 318.52 119.01 319.23 118.24 C 326.28 110.14 333.63 102.26 340.23 93.79 Z" />
<path fill="#fbd11a" opacity="1.00" d=" M 377.69 132.92 C 379.01 133.25 380.61 133.20 381.42 134.52 C 384.36 138.28 387.49 141.90 390.38 145.71 C 391.90 150.31 390.37 155.30 389.19 159.83 C 384.94 156.18 380.82 152.36 376.36 148.97 C 375.69 143.58 376.41 138.17 377.69 132.92 Z" />
<path fill="#fbd11a" opacity="1.00" d=" M 291.29 147.76 C 296.27 142.82 300.88 137.52 305.43 132.18 C 307.44 137.36 308.17 142.93 307.76 148.45 C 304.20 151.32 300.79 154.37 297.40 157.43 C 296.50 158.34 295.23 158.55 294.05 158.82 C 293.12 155.14 291.92 151.52 291.29 147.76 Z" />
<path fill="#fbd11a" opacity="1.00" d=" M 323.40 164.06 C 329.76 159.07 335.32 153.09 341.87 148.37 C 346.64 151.80 350.74 156.05 355.30 159.75 C 356.73 160.99 358.33 162.14 359.29 163.82 C 357.28 181.75 355.11 199.66 353.36 217.63 C 356.22 218.26 359.15 218.60 362.08 218.65 C 363.23 210.27 365.06 202.00 366.47 193.67 C 367.86 186.78 368.74 179.79 370.61 173.01 C 373.28 175.48 376.01 177.90 378.84 180.19 C 382.27 182.34 380.68 186.91 380.08 190.12 C 376.96 200.48 373.87 210.85 370.80 221.23 C 382.26 224.45 393.47 229.10 403.36 235.77 C 409.16 227.00 414.18 217.73 419.59 208.71 C 421.16 206.31 422.19 203.38 424.55 201.62 C 429.45 201.73 434.31 202.52 439.22 202.65 C 438.01 204.64 436.84 206.66 435.44 208.52 C 428.06 218.15 420.79 227.87 413.43 237.51 C 412.45 238.61 412.26 240.08 411.97 241.46 C 413.24 242.48 414.51 243.52 415.78 244.57 C 416.21 244.58 417.08 244.59 417.52 244.60 C 427.97 232.05 438.80 219.83 449.33 207.35 C 450.86 205.76 452.26 203.19 454.86 203.69 C 463.03 204.30 471.22 204.78 479.36 205.76 C 479.37 213.08 480.19 220.36 480.54 227.67 C 465.03 239.46 449.01 250.56 433.45 262.28 C 435.12 264.59 436.86 266.84 438.77 268.96 C 448.88 262.64 458.97 256.31 469.09 250.00 C 473.17 247.55 476.99 244.63 481.46 242.87 C 481.64 247.84 482.11 252.79 482.62 257.74 C 477.35 260.91 471.64 263.25 466.15 266.01 C 459.17 269.26 452.43 273.03 445.27 275.90 C 445.26 277.64 444.97 279.49 445.85 281.09 C 450.21 289.54 454.20 298.35 456.09 307.72 C 462.45 307.00 468.48 304.63 474.73 303.33 C 481.06 301.80 487.39 299.33 494.03 300.27 C 496.54 303.75 499.86 306.56 502.08 310.27 C 487.63 312.88 472.98 314.35 458.46 316.59 C 458.59 318.89 458.71 321.18 458.83 323.49 C 466.34 324.23 473.74 322.42 481.23 322.32 C 486.18 321.80 491.18 321.79 496.10 321.00 C 501.20 320.44 506.33 320.41 511.45 320.30 C 516.78 326.75 522.34 333.01 527.90 339.26 C 530.18 341.58 527.26 344.08 525.82 345.86 C 522.49 349.24 519.84 353.29 516.24 356.40 C 497.58 353.78 478.93 350.79 460.35 347.63 C 460.08 350.81 460.02 354.03 460.54 357.19 C 468.88 358.26 476.97 360.72 485.19 362.47 C 492.37 364.25 499.69 365.46 506.75 367.70 C 503.94 371.08 500.79 374.19 498.16 377.73 C 495.48 377.89 492.72 378.11 490.15 377.17 C 480.00 373.61 469.78 370.19 459.68 366.49 C 458.31 365.83 456.79 366.20 455.46 366.68 C 457.33 368.22 456.17 370.34 455.79 372.15 C 453.45 379.93 450.59 387.58 446.71 394.73 C 445.61 396.73 444.72 398.85 444.04 401.03 C 454.50 405.34 464.39 410.91 474.71 415.55 C 476.52 416.60 478.93 417.17 480.06 419.05 C 480.39 423.99 479.25 428.92 479.34 433.88 C 468.96 428.03 459.09 421.32 448.90 415.13 C 445.34 413.06 442.13 410.23 438.08 409.14 C 436.57 411.29 434.95 413.35 433.27 415.38 C 447.83 426.55 462.82 437.17 477.70 447.92 C 478.17 455.75 478.52 463.58 477.42 471.38 C 468.60 471.79 459.86 473.35 451.04 473.51 C 439.87 460.04 428.21 446.98 416.99 433.54 C 416.60 433.53 415.83 433.51 415.44 433.50 C 413.77 434.74 412.10 435.98 410.43 437.21 C 415.29 444.33 420.77 451.00 425.87 457.95 C 429.75 462.91 433.30 468.14 437.45 472.89 C 437.50 473.68 437.55 474.48 437.61 475.28 C 432.70 475.15 427.84 476.33 422.96 476.14 C 417.46 468.10 413.00 459.37 407.85 451.10 C 406.13 448.24 404.33 445.42 403.05 442.34 C 393.10 448.60 382.17 453.11 370.98 456.63 C 374.42 467.96 377.71 479.33 381.17 490.65 C 381.56 492.03 381.59 493.48 381.66 494.91 C 377.81 497.78 374.25 501.01 370.66 504.20 C 366.71 489.24 365.50 473.62 361.44 458.69 L 359.03 458.44 L 359.59 461.55 C 357.85 460.07 355.76 459.11 353.43 459.57 C 354.30 470.44 355.94 481.22 356.81 492.08 C 358.11 499.27 358.05 506.63 359.45 513.81 C 355.30 517.81 350.76 521.39 346.54 525.33 C 345.12 526.47 343.73 528.14 341.70 527.89 C 339.19 527.91 337.71 525.47 335.86 524.13 C 331.65 520.14 326.77 516.81 322.98 512.42 C 325.07 495.51 327.08 478.60 329.18 461.69 C 327.87 459.36 324.18 460.35 321.90 459.60 C 319.09 474.16 316.09 488.73 314.05 503.42 C 313.65 503.48 312.86 503.59 312.47 503.64 C 308.72 500.60 305.15 497.36 301.64 494.06 C 305.31 482.06 309.18 470.11 312.58 458.03 C 300.81 455.69 289.59 451.13 279.01 445.55 C 273.30 456.02 266.78 466.03 261.04 476.49 C 255.36 476.64 249.74 475.73 244.10 475.20 C 244.71 474.88 245.32 474.57 245.93 474.26 C 253.73 462.73 262.69 452.02 270.89 440.76 C 268.89 439.20 266.86 437.68 264.84 436.15 C 253.58 448.69 242.86 461.72 231.76 474.41 C 223.47 473.47 215.14 473.13 206.80 473.06 C 206.43 464.85 205.67 456.66 205.55 448.44 C 219.03 438.63 232.42 428.71 246.01 419.07 C 244.34 416.58 242.46 414.25 240.83 411.74 C 232.63 416.11 225.02 421.48 217.07 426.28 C 212.74 428.80 208.80 432.17 203.91 433.59 C 204.09 428.11 203.04 422.46 204.75 417.14 C 209.13 415.87 213.11 413.58 217.21 411.63 C 223.01 408.83 228.87 406.12 234.59 403.14 C 229.84 395.22 225.83 386.87 222.78 378.14 C 221.81 374.83 220.82 371.52 219.97 368.18 C 208.95 370.91 198.16 374.46 187.22 377.47 C 184.46 378.11 181.60 377.87 178.80 377.72 C 176.31 374.18 172.96 371.31 170.80 367.53 C 186.34 364.14 201.99 361.18 217.61 358.12 C 217.52 354.98 217.33 351.84 217.15 348.70 C 198.29 351.42 179.40 353.95 160.53 356.56 C 156.31 351.30 151.50 346.56 147.41 341.20 C 153.61 334.44 159.45 327.35 165.59 320.54 C 173.27 319.93 181.01 320.86 188.67 321.58 C 198.27 321.66 207.82 323.10 217.44 322.75 C 217.61 320.54 218.62 318.23 218.11 316.05 C 209.42 313.89 200.28 313.98 191.45 312.46 C 185.81 311.79 180.17 311.12 174.52 310.55 C 177.50 306.64 180.88 303.07 183.96 299.24 C 196.56 300.04 208.59 304.94 221.18 305.75 C 223.81 294.73 228.62 284.21 234.75 274.71 C 230.31 271.87 225.42 269.88 220.74 267.51 C 215.77 265.23 211.01 262.41 205.74 260.87 C 205.06 255.40 205.84 249.91 205.83 244.43 C 213.76 249.43 221.74 254.35 229.66 259.37 C 233.33 261.62 236.85 264.19 240.88 265.81 C 242.44 263.44 244.16 261.16 245.94 258.95 C 233.35 249.86 220.91 240.56 208.23 231.60 C 208.03 224.26 208.04 216.90 208.41 209.56 C 211.55 209.51 214.71 209.38 217.79 208.72 C 222.94 208.56 228.05 207.90 233.19 207.63 C 234.88 207.37 235.84 209.12 236.89 210.13 C 245.40 220.47 254.50 230.34 262.88 240.78 C 265.52 241.03 267.90 239.80 269.67 237.91 C 269.77 236.68 268.96 235.72 268.31 234.77 C 261.26 225.40 254.02 216.18 247.14 206.68 C 252.44 206.58 257.89 204.68 263.08 206.49 C 267.94 215.36 272.98 224.20 278.65 232.59 C 289.11 226.17 300.92 222.41 312.74 219.38 C 309.33 207.14 304.85 195.19 302.00 182.80 C 305.46 179.61 309.13 176.68 312.61 173.52 C 312.97 173.57 313.69 173.65 314.05 173.69 C 314.22 175.61 314.35 177.54 314.69 179.44 C 317.13 192.18 319.44 204.94 321.79 217.70 C 324.36 217.63 326.94 217.49 329.52 217.34 C 327.81 205.51 326.55 193.62 325.12 181.75 C 324.34 175.88 323.31 170.00 323.40 164.06 M 324.15 229.79 C 302.98 232.44 282.75 241.69 266.64 255.64 C 249.02 270.90 236.43 291.90 231.45 314.68 C 228.75 326.69 228.97 339.11 229.62 351.33 C 230.77 361.06 233.04 370.68 236.79 379.75 C 248.99 410.42 275.87 434.82 307.63 443.90 C 317.17 446.56 327.08 448.72 337.04 447.87 C 343.40 447.69 349.85 448.28 356.13 446.90 C 377.79 443.54 398.37 433.36 414.15 418.14 C 436.10 397.49 449.38 367.26 447.84 336.99 C 448.57 325.20 445.98 313.50 442.24 302.39 C 435.38 282.50 422.51 264.85 405.98 251.88 C 388.45 238.29 366.72 229.91 344.49 229.17 C 342.69 228.94 340.90 228.73 339.10 228.57 C 334.11 228.90 329.13 229.32 324.15 229.79 Z" />
<path fill="#fbd11a" opacity="1.00" d=" M 166.39 193.64 C 165.31 185.37 165.76 176.96 166.43 168.68 C 173.21 168.97 180.04 168.38 186.78 169.37 C 191.68 169.99 196.64 169.36 201.54 169.92 C 203.40 170.81 204.58 172.62 205.92 174.11 C 209.14 178.17 212.80 181.86 215.95 185.98 C 206.65 188.08 197.06 187.57 187.62 188.63 C 186.43 197.25 185.49 205.96 185.79 214.69 C 179.08 210.65 173.02 205.64 166.66 201.08 C 166.61 198.59 166.53 196.11 166.39 193.64 Z" />
<path fill="#fbd11a" opacity="1.00" d=" M 219.06 169.66 C 226.36 168.40 233.77 168.61 241.09 169.62 C 243.89 174.28 246.34 179.18 249.61 183.56 C 245.82 184.86 241.72 184.43 237.85 185.42 L 237.03 184.77 C 234.87 184.77 232.69 184.95 230.56 184.61 C 226.39 179.91 222.88 174.65 219.06 169.66 Z" />
<path fill="#fbd11a" opacity="1.00" d=" M 442.25 169.75 C 449.71 168.32 457.30 168.65 464.79 169.64 C 461.96 173.17 459.54 177.02 456.55 180.42 C 449.97 181.82 443.27 180.27 436.64 180.21 C 438.50 176.72 440.65 173.38 442.25 169.75 Z" />
<path fill="#fbd11a" opacity="1.00" d=" M 480.87 170.47 C 488.38 168.93 496.13 169.94 503.75 169.44 C 508.35 169.34 513.01 169.75 517.52 168.60 C 519.18 179.36 517.65 190.23 517.20 201.02 C 512.60 204.67 507.61 207.80 503.11 211.58 C 502.57 211.47 501.49 211.24 500.95 211.12 C 500.79 202.30 500.84 193.48 500.23 184.67 C 492.74 184.49 485.30 183.52 477.81 183.28 C 475.52 183.03 473.24 182.71 470.96 182.37 C 474.18 178.34 477.68 174.53 480.87 170.47 Z" />
<path fill="#fbd11a" opacity="1.00" d=" M 512.79 220.46 C 513.69 220.98 515.24 221.36 514.85 222.77 C 513.54 229.76 512.59 236.80 511.51 243.82 C 509.11 245.05 506.76 246.39 504.58 247.98 C 503.26 241.61 503.52 235.09 503.30 228.63 C 506.42 226.41 510.20 224.97 512.77 222.09 L 512.79 220.46 Z" />
<path fill="#fbd11a" opacity="1.00" d=" M 172.46 244.16 C 171.18 236.77 169.80 229.36 169.40 221.86 C 174.69 224.36 179.01 228.71 184.72 230.30 L 184.20 230.23 C 184.88 236.63 183.48 242.97 183.50 249.37 C 179.79 247.70 176.08 246.00 172.46 244.16 Z" />
<path fill="#fbd11a" opacity="1.00" d=" M 269.76 275.81 C 285.44 258.49 307.89 247.49 331.19 245.76 C 334.13 245.68 337.05 246.15 340.00 246.15 C 358.46 245.20 376.77 251.74 391.84 262.16 C 415.05 278.13 430.23 305.13 431.55 333.30 C 430.24 340.74 431.45 348.36 430.12 355.81 C 426.55 375.31 416.45 393.50 401.91 406.96 C 381.58 425.92 352.52 434.99 325.02 430.78 C 303.43 427.62 283.11 416.65 268.74 400.22 C 260.90 391.41 254.92 381.03 250.78 370.00 C 247.76 360.56 245.57 350.74 245.54 340.78 C 246.80 334.59 245.50 328.20 246.93 322.02 C 249.98 304.87 258.02 288.67 269.76 275.81 M 300.44 264.94 C 300.50 265.64 300.55 266.36 300.62 267.07 C 308.83 284.21 316.42 301.64 324.62 318.79 C 328.72 317.29 332.95 316.23 337.22 315.35 C 337.20 295.74 337.16 276.12 337.24 256.50 C 324.48 255.29 311.94 259.82 300.44 264.94 M 340.70 256.37 C 340.70 266.94 340.74 277.53 340.92 288.07 C 339.93 297.19 342.18 306.32 340.56 315.39 C 344.86 316.48 349.35 317.23 353.24 319.50 C 360.69 304.09 367.54 288.39 374.86 272.92 C 376.20 270.38 375.84 267.43 375.87 264.67 C 364.92 259.55 352.91 255.68 340.70 256.37 M 357.55 321.13 C 360.77 325.53 365.66 329.04 367.20 334.65 C 371.46 331.10 375.00 326.81 378.63 322.66 C 388.07 312.49 397.16 302.01 406.61 291.85 C 400.39 282.12 391.62 274.26 381.89 268.15 C 373.66 285.75 365.48 303.39 357.55 321.13 M 291.52 270.51 C 286.01 274.58 280.62 278.94 276.27 284.29 C 274.57 286.48 272.22 288.35 271.35 291.06 C 275.23 296.60 280.42 301.07 284.72 306.28 C 292.51 314.89 300.28 323.53 308.10 332.11 C 309.22 333.82 311.39 332.08 311.86 330.74 C 313.97 326.83 317.27 323.82 320.74 321.13 C 313.01 303.74 304.63 286.64 297.10 269.16 C 295.17 269.23 293.06 269.12 291.52 270.51 M 265.97 298.96 C 261.86 306.62 258.82 314.90 257.33 323.48 C 267.28 332.94 277.44 342.17 287.49 351.52 C 289.67 353.70 291.98 355.76 294.59 357.43 C 298.79 355.78 303.13 354.54 307.46 353.26 C 307.29 348.14 307.48 343.01 307.67 337.89 C 294.48 323.84 281.63 309.46 268.83 295.07 C 267.76 296.28 266.72 297.52 265.97 298.96 M 372.23 336.31 C 371.19 337.72 369.36 338.93 369.55 340.88 C 369.78 344.94 369.92 349.01 369.74 353.08 C 374.88 354.66 380.07 356.65 385.56 355.74 C 396.60 345.56 407.43 335.14 418.72 325.24 C 419.54 314.57 414.20 304.63 409.14 295.61 C 396.74 309.09 384.59 322.79 372.23 336.31 M 301.82 359.46 C 289.84 363.39 277.65 366.67 265.73 370.77 C 281.30 385.72 301.31 396.23 322.69 399.60 C 331.12 400.15 339.58 399.82 348.01 399.88 C 357.29 400.15 366.31 397.33 374.93 394.18 C 388.42 389.09 400.39 380.69 410.74 370.74 C 406.89 369.33 402.98 368.10 399.08 366.84 C 388.94 363.77 378.91 360.32 368.77 357.27 C 364.34 369.56 352.30 379.00 339.00 378.77 C 325.99 379.22 313.27 370.53 309.10 358.18 C 306.62 358.27 304.16 358.60 301.82 359.46 M 264.66 375.87 C 268.69 383.04 273.12 390.07 278.96 395.92 C 281.24 394.25 283.52 392.59 285.86 391.02 C 278.12 387.03 271.17 381.61 264.66 375.87 M 392.19 390.89 C 394.13 391.96 396.00 393.16 397.79 394.48 C 398.21 394.52 399.05 394.60 399.47 394.64 C 404.17 388.67 409.87 382.82 411.76 375.27 C 406.25 381.63 399.00 386.09 392.19 390.89 M 282.17 399.08 C 287.91 403.99 293.87 409.33 301.08 411.84 C 304.78 408.89 307.97 405.33 311.14 401.83 C 303.97 399.34 296.75 396.93 289.97 393.48 C 287.35 395.33 284.77 397.21 282.17 399.08 M 382.58 395.63 C 377.62 398.16 372.22 399.58 367.06 401.62 C 370.28 405.09 373.70 408.37 377.02 411.74 C 383.90 408.44 389.73 403.49 395.66 398.79 C 393.28 396.90 391.14 394.43 388.21 393.43 C 386.16 393.59 384.42 394.84 382.58 395.63 M 344.06 404.98 C 342.95 405.25 341.83 405.51 340.72 405.77 C 340.31 410.72 341.72 415.68 340.73 420.60 C 350.01 421.32 359.21 419.12 367.89 415.98 C 369.53 415.37 371.14 414.63 372.55 413.57 C 368.96 409.77 365.29 406.02 361.32 402.62 C 355.74 404.38 349.85 404.56 344.06 404.98 M 314.98 404.36 C 312.06 407.89 308.65 410.96 305.50 414.27 C 310.07 416.59 315.02 417.90 319.93 419.24 C 325.14 420.45 330.49 420.78 335.82 420.84 C 335.89 415.61 336.01 410.37 335.68 405.15 C 334.15 405.14 332.63 405.14 331.10 405.10 C 325.80 404.06 320.35 403.95 314.98 404.36 Z" />
<path fill="#fbd11a" opacity="1.00" d=" M 144.28 290.28 C 149.73 289.41 155.16 290.89 160.26 292.68 C 156.69 297.10 152.71 301.18 149.25 305.70 C 143.09 306.17 136.88 305.61 130.87 304.19 C 132.97 300.33 136.57 297.71 139.50 294.53 C 141.05 293.09 142.35 291.23 144.28 290.28 Z" />
<path fill="#fbd11a" opacity="1.00" d=" M 516.97 292.62 C 522.27 290.81 527.81 289.55 533.45 290.22 C 537.48 295.10 543.00 298.72 546.26 304.20 C 540.23 305.27 533.88 306.71 527.83 305.42 C 524.04 301.31 520.32 297.10 516.97 292.62 Z" />
<path fill="#fbd11a" opacity="1.00" d=" M 118.62 316.46 C 125.10 316.29 131.47 317.63 137.93 317.85 C 137.11 319.35 136.13 320.78 134.93 322.01 C 129.13 328.22 123.92 334.96 118.00 341.06 C 122.78 347.32 128.19 353.07 133.41 358.95 C 133.48 359.50 133.61 360.61 133.68 361.16 C 127.59 361.31 121.67 362.92 115.63 363.63 C 108.69 356.63 101.18 350.23 94.10 343.37 C 94.20 341.94 94.31 340.51 94.45 339.09 C 102.74 331.81 110.71 324.16 118.62 316.46 Z" />
<path fill="#fbd11a" opacity="1.00" d=" M 547.35 317.34 C 550.99 316.47 554.75 316.55 558.48 316.46 C 566.71 324.28 575.11 331.92 583.12 339.97 C 583.95 340.74 583.53 342.03 583.75 343.04 C 579.12 346.63 575.20 351.01 570.79 354.85 C 567.55 357.67 564.38 360.57 561.39 363.64 C 555.10 362.77 548.89 361.24 542.52 361.23 C 547.18 353.87 553.99 348.19 558.94 341.05 C 553.05 334.60 547.49 327.87 541.58 321.43 C 540.60 320.35 539.86 319.09 539.16 317.83 C 541.88 317.66 544.61 317.54 547.35 317.34 Z" />
<path fill="#fbd11a" opacity="1.00" d=" M 134.13 375.78 C 138.31 374.69 142.63 373.70 146.97 374.38 C 150.46 378.82 154.16 383.10 157.99 387.26 C 154.94 388.30 151.66 389.48 148.41 388.62 C 143.58 385.72 139.53 381.67 134.60 378.90 C 134.43 377.86 134.28 376.82 134.13 375.78 Z" />
<path fill="#fbd11a" opacity="1.00" d=" M 530.49 374.17 C 535.69 373.68 540.70 375.17 545.58 376.75 C 539.77 380.06 534.88 384.72 529.28 388.33 C 526.75 389.51 523.84 388.49 521.20 388.36 C 521.23 387.11 521.26 385.86 521.32 384.61 C 524.47 381.22 527.40 377.62 530.49 374.17 Z" />
<path fill="#fbd11a" opacity="1.00" d=" M 181.45 429.27 C 181.65 429.10 182.04 428.77 182.24 428.60 C 182.51 434.78 182.32 441.00 183.40 447.12 C 179.37 449.91 175.24 452.57 170.90 454.86 C 172.18 447.27 172.62 439.53 174.51 432.04 C 176.81 431.08 179.10 430.11 181.45 429.27 Z" />
<path fill="#fbd11a" opacity="1.00" d=" M 502.45 448.95 C 501.78 442.32 502.13 435.63 502.33 428.98 C 504.77 430.11 507.19 431.31 509.59 432.55 C 510.50 439.76 512.29 446.93 511.79 454.25 C 508.65 452.53 505.66 450.55 502.45 448.95 Z" />
<path fill="#fbd11a" opacity="1.00" d=" M 171.23 473.54 C 175.19 470.21 179.84 467.75 183.42 463.97 C 184.86 469.66 184.31 475.56 184.73 481.36 C 185.00 485.05 185.41 488.73 185.60 492.44 C 194.91 494.38 204.61 493.46 213.88 495.53 C 210.50 498.98 207.50 502.77 204.36 506.42 C 199.97 507.10 195.53 507.56 191.11 506.91 C 186.25 507.09 181.40 507.64 176.52 507.49 C 173.57 508.07 170.58 508.29 167.59 508.19 C 167.48 499.51 168.48 490.88 168.29 482.19 C 168.43 479.45 168.58 476.72 168.81 473.99 C 169.42 473.88 170.63 473.65 171.23 473.54 Z" />
<path fill="#fbd11a" opacity="1.00" d=" M 499.89 465.20 C 504.92 466.53 508.35 471.00 512.73 473.61 C 513.34 473.70 514.55 473.89 515.16 473.98 C 515.16 481.68 516.70 489.33 516.01 497.04 C 515.73 500.52 516.13 504.01 516.41 507.48 C 513.60 507.54 510.80 507.55 508.01 507.49 C 498.39 507.43 488.83 506.40 479.21 506.42 C 476.11 502.26 472.41 498.59 469.44 494.34 C 479.42 493.36 489.41 492.63 499.36 491.40 C 499.25 488.02 498.96 484.65 499.12 481.27 C 499.97 475.96 499.74 470.56 499.89 465.20 Z" />
<path fill="#fbd11a" opacity="1.00" d=" M 228.85 496.42 C 231.20 496.51 233.57 496.62 235.91 496.97 C 239.98 497.58 244.15 497.41 248.16 498.45 C 246.15 501.27 244.33 504.23 242.94 507.40 C 239.81 507.55 236.69 507.58 233.56 507.52 C 229.62 506.78 225.61 506.77 221.62 506.80 C 223.39 502.93 226.29 499.78 228.85 496.42 Z" />
<path fill="#fbd11a" opacity="1.00" d=" M 435.78 497.77 C 441.50 496.55 447.36 496.61 453.12 495.78 C 453.64 495.98 454.69 496.38 455.21 496.58 C 457.73 499.88 460.00 503.39 462.68 506.57 L 464.93 507.15 C 457.15 509.60 448.93 507.18 440.97 507.40 C 439.25 504.19 437.31 501.09 435.78 497.77 Z" />
<path fill="#fbd11a" opacity="1.00" d=" M 293.88 519.20 C 294.93 519.28 295.98 519.37 297.03 519.46 C 300.42 522.73 303.90 525.91 307.69 528.72 C 308.31 533.94 307.16 539.11 306.03 544.18 C 300.39 540.80 297.15 534.73 292.26 530.46 C 291.80 526.61 292.66 522.83 293.88 519.20 Z" />
<path fill="#fbd11a" opacity="1.00" d=" M 385.54 520.60 C 386.66 519.19 388.43 519.25 390.05 519.40 C 390.50 522.04 391.35 524.61 391.78 527.26 C 392.47 530.68 389.03 532.83 387.34 535.34 C 384.15 538.58 382.15 543.19 377.91 545.25 C 376.64 540.43 376.39 535.38 374.78 530.65 C 377.81 526.74 381.99 523.99 385.54 520.60 Z" />
<path fill="#fbd11a" opacity="1.00" d=" M 319.66 540.41 C 320.16 540.43 320.67 540.45 321.18 540.49 C 325.96 545.14 331.18 549.29 336.09 553.80 C 338.17 555.92 341.25 558.10 344.28 556.42 C 350.40 551.55 356.08 546.15 362.13 541.20 C 362.38 543.28 362.72 545.36 363.28 547.39 L 362.63 547.62 C 364.27 552.56 363.80 557.89 363.65 563.02 C 355.89 569.82 349.14 577.75 341.17 584.30 C 333.52 574.99 325.43 566.04 317.57 556.92 C 317.98 551.38 318.94 545.91 319.66 540.41 Z" />
</g>
<g id="#ffffffff">
<path fill="#ffffff" opacity="1.00" d=" M 319.58 8.85 C 382.92 5.07 447.27 20.09 502.30 51.71 C 564.81 87.31 615.10 143.88 642.96 210.21 C 677.08 290.23 677.50 383.81 644.15 464.15 C 617.25 529.85 568.44 586.25 507.41 622.48 C 471.52 643.96 431.45 658.41 390.13 664.87 C 345.93 671.81 300.31 669.77 256.96 658.68 C 187.30 641.16 124.02 599.85 79.58 543.47 C 48.81 504.77 26.98 459.02 16.23 410.76 C 6.73 368.22 5.74 323.82 13.34 280.89 C 21.41 234.82 39.59 190.59 66.06 152.04 C 89.22 118.22 118.73 88.78 152.59 65.68 C 201.71 32.02 260.11 12.09 319.58 8.85 M 394.68 23.50 C 394.06 26.20 393.39 28.90 392.71 31.59 C 396.96 32.68 401.24 33.67 405.52 34.64 C 402.77 46.20 400.07 57.77 397.31 69.33 C 400.52 70.11 403.75 70.87 406.97 71.63 C 409.75 60.08 412.40 48.50 415.18 36.96 C 419.41 37.96 423.65 38.91 427.87 39.95 C 428.58 37.25 429.22 34.54 429.86 31.82 C 418.15 28.97 406.41 26.24 394.68 23.50 M 245.67 32.38 C 249.30 46.60 252.84 60.83 256.35 75.08 C 267.21 72.41 278.06 69.73 288.91 67.03 C 288.27 64.30 287.59 61.57 286.91 58.84 C 279.31 60.74 271.70 62.58 264.13 64.57 C 263.14 61.22 262.32 57.83 261.49 54.44 C 268.34 52.75 275.17 50.97 282.04 49.36 C 281.40 46.83 280.77 44.31 280.14 41.78 C 273.29 43.48 266.45 45.19 259.61 46.91 C 258.89 43.99 258.15 41.09 257.37 38.19 C 264.84 36.25 272.34 34.43 279.82 32.55 C 279.14 29.82 278.46 27.10 277.78 24.38 C 267.07 27.01 256.38 29.73 245.67 32.38 M 337.66 35.70 C 334.88 36.09 332.10 36.51 329.32 36.96 C 331.30 38.91 333.34 40.80 335.37 42.70 C 334.91 45.51 334.45 48.31 333.95 51.11 C 336.42 49.80 338.90 48.52 341.35 47.17 C 343.86 48.49 346.37 49.83 348.88 51.16 C 348.36 48.44 347.92 45.71 347.43 42.98 C 349.42 40.97 351.43 38.97 353.43 36.95 C 350.70 36.54 347.98 36.15 345.26 35.78 C 344.00 33.25 342.73 30.72 341.44 28.20 C 340.15 30.68 338.90 33.19 337.66 35.70 M 461.10 42.81 C 454.76 56.07 448.28 69.27 441.99 82.55 C 444.97 83.99 447.94 85.47 450.95 86.85 C 453.40 81.70 455.82 76.55 458.42 71.48 C 462.47 74.06 468.16 74.83 470.80 79.17 C 471.76 84.64 467.89 89.41 467.13 94.68 C 470.08 96.18 473.09 97.55 476.06 99.02 C 476.14 91.56 484.29 83.79 478.10 76.88 C 486.59 77.46 492.44 67.24 489.19 59.85 C 487.98 56.93 485.56 54.67 482.75 53.32 C 475.55 49.79 468.29 46.37 461.10 42.81 M 202.18 49.41 C 206.69 57.97 210.99 66.63 215.36 75.26 C 205.58 69.39 195.83 63.47 186.06 57.58 C 183.16 59.05 180.29 60.58 177.41 62.07 C 183.93 75.22 190.74 88.22 197.29 101.35 C 200.11 99.97 202.92 98.56 205.68 97.06 C 201.16 88.35 196.73 79.59 192.29 70.85 C 198.43 75.13 205.03 78.70 211.37 82.65 C 214.88 84.62 218.11 87.12 221.81 88.73 C 224.83 87.56 227.62 85.88 230.55 84.52 C 223.96 71.38 217.26 58.29 210.57 45.20 C 207.78 46.62 204.98 48.00 202.18 49.41 M 316.53 72.84 C 254.91 77.67 195.39 104.98 151.56 148.56 C 125.21 174.32 104.40 205.70 90.77 239.93 C 75.84 277.26 69.73 318.03 72.66 358.11 C 76.51 414.20 98.95 468.75 135.51 511.44 C 161.19 541.66 193.69 566.04 229.92 582.17 C 270.50 600.39 315.73 607.97 360.05 604.38 C 397.28 601.47 433.88 590.59 466.61 572.58 C 499.41 554.64 528.36 529.70 550.95 499.91 C 575.47 467.77 592.51 429.95 600.24 390.26 C 608.83 346.52 606.34 300.62 592.89 258.11 C 581.56 222.16 562.42 188.72 537.26 160.68 C 509.34 129.48 473.99 104.94 434.93 89.87 C 397.45 75.25 356.60 69.58 316.53 72.84 M 139.62 88.53 C 148.63 100.15 157.56 111.84 166.59 123.44 C 169.19 121.38 171.83 119.35 174.44 117.28 C 165.40 105.69 156.50 93.98 147.46 82.40 C 144.86 84.45 142.25 86.50 139.62 88.53 M 494.72 110.52 C 497.27 112.69 499.92 114.77 502.50 116.92 C 505.49 115.19 508.43 113.37 511.37 111.54 C 515.55 114.94 519.78 118.28 523.91 121.75 C 522.69 124.91 521.54 128.09 520.35 131.27 C 523.00 133.47 525.70 135.60 528.35 137.80 C 533.35 122.93 538.26 108.02 543.26 93.15 C 540.68 91.03 538.06 88.97 535.48 86.84 C 521.84 94.64 508.37 102.75 494.72 110.52 M 112.38 115.55 C 109.09 116.47 106.54 118.85 104.29 121.30 C 99.99 125.97 95.75 130.70 91.44 135.36 C 102.25 145.34 113.18 155.20 124.04 165.14 C 126.19 162.65 128.43 160.23 130.72 157.87 C 126.99 154.17 123.01 150.75 119.18 147.16 C 122.93 142.57 128.12 138.78 129.98 132.93 C 133.21 123.07 122.17 112.27 112.38 115.55 M 544.19 154.32 C 546.08 156.82 548.01 159.28 549.98 161.71 C 557.59 155.72 565.24 149.76 572.86 143.78 C 568.92 154.51 564.96 165.23 561.10 175.98 C 563.11 178.54 565.12 181.11 567.14 183.68 C 578.76 174.70 590.28 165.60 601.87 156.58 C 599.97 154.08 598.02 151.62 596.10 149.13 C 588.53 155.23 580.75 161.06 573.19 167.17 C 577.08 156.42 581.01 145.69 584.96 134.96 C 582.97 132.34 580.94 129.75 578.91 127.17 C 567.34 136.23 555.76 145.27 544.19 154.32 M 64.02 175.00 C 60.61 180.88 57.18 186.75 53.82 192.67 C 66.51 200.02 79.23 207.33 91.88 214.75 C 93.60 211.90 95.28 209.03 96.92 206.13 C 92.42 203.49 87.89 200.90 83.39 198.26 C 86.24 192.68 90.87 187.56 91.02 180.99 C 91.12 173.17 83.39 167.04 75.93 167.20 C 70.83 167.14 66.44 170.74 64.02 175.00 M 603.49 200.07 C 601.73 207.45 606.03 214.62 605.08 221.98 C 604.54 225.13 600.12 226.07 597.95 224.01 C 594.62 221.19 592.59 216.54 593.41 212.17 C 593.89 209.88 596.02 208.59 597.73 207.26 C 596.35 204.36 595.00 201.45 593.62 198.55 C 588.78 200.87 585.00 205.59 584.89 211.11 C 584.66 218.89 588.28 226.87 594.40 231.71 C 600.61 236.77 611.73 234.20 614.12 226.26 C 616.31 218.79 612.12 211.40 612.35 203.91 C 612.74 200.99 617.02 200.00 619.06 201.96 C 621.48 204.17 623.08 207.55 622.71 210.87 C 622.40 213.00 620.63 214.41 619.21 215.83 C 620.55 218.71 621.90 221.59 623.35 224.43 C 625.71 222.88 628.29 221.30 629.58 218.66 C 632.20 213.93 631.27 208.18 629.31 203.40 C 627.23 198.38 623.38 193.61 617.96 192.11 C 612.10 190.40 604.78 193.84 603.49 200.07 M 36.19 234.99 C 49.98 240.02 63.81 244.95 77.62 249.93 C 78.81 246.81 79.94 243.67 81.03 240.52 C 67.19 235.68 53.42 230.61 39.61 225.66 C 38.45 228.76 37.32 231.87 36.19 234.99 M 603.88 262.38 C 604.59 265.62 605.34 268.85 606.09 272.08 C 611.19 270.95 616.26 269.68 621.42 268.81 C 622.88 274.42 623.16 280.60 626.55 285.50 C 632.45 293.89 647.57 291.45 650.92 281.87 C 652.08 278.68 651.90 275.18 651.16 271.91 C 649.69 265.55 648.32 259.18 646.87 252.82 C 632.53 256.00 618.22 259.23 603.88 262.38 M 62.15 271.62 C 60.88 278.60 59.67 285.59 58.42 292.58 C 46.72 290.44 35.01 288.43 23.31 286.29 C 22.74 289.55 22.17 292.82 21.64 296.09 C 36.07 298.66 50.51 301.23 64.94 303.81 C 66.72 293.55 68.65 283.31 70.36 273.04 C 67.63 272.55 64.89 272.06 62.15 271.62 M 613.74 313.50 C 613.73 316.87 613.72 320.25 613.84 323.62 C 617.15 324.67 620.46 325.77 623.76 326.89 C 623.71 332.23 623.71 337.57 624.01 342.91 C 620.77 344.10 617.52 345.28 614.26 346.43 C 614.18 349.87 614.26 353.32 614.57 356.75 C 629.05 350.99 643.57 345.33 658.09 339.66 C 658.01 336.25 658.03 332.84 657.93 329.44 C 643.18 324.19 628.46 318.85 613.74 313.50 M 19.29 331.25 C 19.21 334.48 19.00 337.72 18.93 340.96 C 33.62 341.39 48.32 341.43 63.02 341.77 C 63.00 338.44 63.12 335.11 63.29 331.79 C 48.62 331.83 33.96 331.21 19.29 331.25 M 20.89 377.54 C 21.47 380.79 22.06 384.03 22.67 387.28 C 28.17 386.28 33.67 385.25 39.18 384.31 C 40.14 390.02 41.38 395.68 42.12 401.43 C 36.67 402.41 31.22 403.43 25.75 404.37 C 26.33 407.61 26.92 410.85 27.50 414.09 C 41.98 411.60 56.43 408.93 70.89 406.27 C 70.25 403.04 69.67 399.80 69.08 396.56 C 62.89 397.65 56.70 398.81 50.51 399.92 C 49.48 394.21 48.49 388.49 47.41 382.80 C 53.59 381.69 59.76 380.49 65.96 379.49 C 65.42 376.20 64.82 372.92 64.20 369.64 C 49.78 372.34 35.32 374.85 20.89 377.54 M 609.54 389.33 C 615.08 390.51 620.62 391.76 626.17 392.92 C 624.98 397.36 625.04 402.45 622.32 406.30 C 617.44 409.64 611.16 406.36 605.72 406.86 C 605.03 410.11 604.31 413.36 603.61 416.61 C 609.43 415.32 615.19 418.43 620.98 416.98 C 622.96 416.59 624.32 415.00 625.62 413.58 C 627.01 421.45 637.29 424.81 643.75 420.87 C 647.34 418.91 649.18 414.93 649.90 411.06 C 651.41 403.69 653.14 396.36 654.62 388.98 C 640.30 385.79 625.95 382.77 611.62 379.61 C 610.93 382.85 610.23 386.08 609.54 389.33 M 43.89 445.82 C 40.95 449.85 41.02 455.37 42.87 459.85 C 45.49 466.23 48.32 472.53 50.98 478.90 C 64.53 473.20 78.04 467.40 91.55 461.59 C 90.23 458.56 88.93 455.52 87.65 452.48 C 82.85 454.49 78.06 456.51 73.32 458.65 C 70.39 453.08 69.19 446.19 63.94 442.17 C 57.77 437.45 48.40 439.98 43.89 445.82 M 595.00 440.66 C 590.29 450.81 585.52 460.93 580.81 471.08 C 583.34 472.27 585.88 473.44 588.43 474.62 C 591.76 467.49 595.09 460.36 598.45 453.25 C 601.55 454.73 604.66 456.21 607.79 457.62 C 604.85 464.04 601.86 470.43 598.85 476.82 C 601.20 477.95 603.56 479.07 605.93 480.18 C 608.91 473.77 611.94 467.39 614.86 460.97 C 617.61 462.20 620.33 463.50 623.08 464.77 C 619.89 471.78 616.50 478.70 613.36 485.73 C 615.89 486.91 618.42 488.09 620.95 489.28 C 625.59 479.28 630.33 469.32 634.90 459.29 C 621.58 453.11 608.28 446.89 595.00 440.66 M 567.39 493.11 C 565.48 495.55 563.57 497.98 561.72 500.46 C 569.35 506.41 577.00 512.32 584.61 518.30 C 573.29 517.09 561.96 515.93 550.64 514.66 C 548.57 517.22 546.57 519.84 544.56 522.45 C 556.11 531.56 567.77 540.51 579.33 549.61 C 581.19 547.09 583.11 544.62 585.09 542.20 C 577.36 536.21 569.72 530.10 561.91 524.22 C 573.33 525.47 584.77 526.67 596.20 527.84 C 598.22 525.29 600.23 522.72 602.21 520.13 C 590.58 511.15 579.11 501.96 567.39 493.11 M 95.41 508.83 C 92.69 508.52 89.97 508.31 87.24 508.16 C 88.72 510.51 90.23 512.84 91.74 515.18 C 90.64 517.72 89.57 520.28 88.57 522.87 C 91.21 522.21 93.85 521.52 96.47 520.77 C 98.69 522.53 100.82 524.38 102.97 526.23 C 103.18 523.41 103.32 520.60 103.57 517.79 C 105.97 516.38 108.34 514.94 110.71 513.49 C 108.10 512.44 105.48 511.42 102.85 510.43 C 102.18 507.69 101.55 504.95 100.89 502.21 C 99.06 504.42 97.27 506.65 95.41 508.83 M 147.28 549.02 C 152.80 553.49 158.33 557.93 163.86 562.38 C 156.46 571.67 148.94 580.86 141.55 590.16 C 144.11 592.26 146.69 594.34 149.25 596.44 C 158.47 584.98 167.73 573.56 176.93 562.09 C 168.86 555.50 160.71 549.03 152.62 542.47 C 150.80 544.62 149.04 546.81 147.28 549.02 M 502.84 562.02 C 500.49 567.97 502.09 574.74 505.56 579.91 C 508.00 577.86 510.47 575.84 512.98 573.86 C 511.63 570.97 510.25 567.72 511.30 564.50 C 513.33 559.08 520.12 555.78 525.53 558.26 C 531.10 560.85 535.33 566.19 536.91 572.09 C 538.77 578.61 532.56 585.79 525.86 585.00 C 523.89 584.92 522.22 583.75 520.50 582.95 C 518.07 584.98 515.59 586.96 513.15 588.97 C 516.47 591.90 520.58 594.18 525.13 594.19 C 535.23 594.25 544.93 586.05 546.17 575.95 C 547.57 564.54 539.62 553.05 528.89 549.42 C 518.66 545.92 506.75 552.19 502.84 562.02 M 195.83 575.16 C 194.09 590.77 192.50 606.39 190.73 622.00 C 193.75 623.51 196.77 625.01 199.78 626.55 C 211.30 615.89 222.86 605.25 234.50 594.70 C 231.52 593.09 228.49 591.58 225.45 590.11 C 222.91 592.41 220.51 594.85 218.09 597.28 C 213.25 594.88 208.44 592.44 203.60 590.05 C 204.08 586.63 204.53 583.19 205.05 579.78 C 201.98 578.22 198.91 576.68 195.83 575.16 M 455.66 588.05 C 457.91 592.65 460.29 597.18 462.40 601.85 C 463.21 603.39 462.93 605.17 462.87 606.85 C 462.06 616.13 461.26 625.41 460.48 634.70 C 463.85 633.20 467.17 631.58 470.45 629.89 C 470.81 623.27 471.47 616.67 471.81 610.05 C 477.35 613.74 482.97 617.29 488.49 621.00 C 491.54 619.07 495.64 618.34 498.06 615.70 C 490.89 610.98 483.64 606.39 476.40 601.77 C 474.44 600.45 472.03 599.38 471.14 597.02 C 469.03 592.55 466.85 588.12 464.62 583.70 C 461.59 585.06 458.61 586.52 455.66 588.05 M 255.11 601.75 C 254.44 604.46 253.77 607.17 253.10 609.89 C 260.72 611.80 268.33 613.78 275.98 615.56 C 275.16 618.92 274.37 622.29 273.52 625.66 C 266.63 624.05 259.77 622.30 252.91 620.59 C 252.29 623.10 251.69 625.63 251.07 628.15 C 257.91 629.87 264.77 631.55 271.61 633.30 C 270.87 636.21 270.18 639.13 269.50 642.05 C 262.03 640.15 254.52 638.42 247.06 636.51 C 246.38 639.21 245.69 641.92 245.02 644.63 C 255.70 647.36 266.43 649.90 277.12 652.61 C 280.55 638.34 284.13 624.10 287.66 609.86 C 276.84 607.05 265.94 604.55 255.11 601.75 M 318.65 615.52 C 311.45 619.17 309.61 630.72 316.19 635.81 C 321.89 640.53 329.96 640.11 336.18 643.79 C 338.20 644.97 337.74 647.93 336.40 649.48 C 331.76 653.34 323.02 651.08 322.41 644.51 C 319.31 644.33 316.22 644.20 313.12 644.24 C 312.72 649.86 316.15 655.35 321.45 657.32 C 328.39 659.88 337.15 660.04 343.08 655.07 C 348.30 650.86 348.96 641.72 343.55 637.40 C 338.10 632.75 330.37 633.07 324.30 629.71 C 322.09 628.59 320.82 625.56 322.47 623.45 C 327.61 618.11 339.92 620.39 339.72 628.99 C 342.94 629.07 346.16 629.26 349.39 629.28 C 349.46 623.64 346.65 618.03 341.49 615.48 C 334.46 612.10 325.61 611.85 318.65 615.52 M 396.22 624.17 C 393.56 623.32 390.90 622.48 388.24 621.65 C 389.15 624.27 390.08 626.89 391.05 629.50 C 389.47 631.77 387.85 634.02 386.22 636.26 C 389.03 636.25 391.84 636.25 394.66 636.22 C 396.26 638.47 397.90 640.71 399.58 642.93 C 400.37 640.24 401.14 637.54 401.89 634.85 C 404.55 633.95 407.21 633.06 409.88 632.16 C 407.64 630.59 405.37 629.06 403.09 627.57 C 403.06 624.74 402.97 621.92 402.71 619.11 C 400.55 620.81 398.39 622.50 396.22 624.17 Z" />
<path fill="#ffffff" opacity="1.00" d=" M 461.49 65.01 C 463.14 61.39 464.99 57.86 466.63 54.23 C 470.44 56.14 474.47 57.67 478.06 60.00 C 482.66 63.17 478.34 72.01 473.00 70.31 C 469.00 68.93 465.34 66.73 461.49 65.01 Z" />
<path fill="#ffffff" opacity="1.00" d=" M 320.61 80.84 C 380.12 76.53 440.92 93.69 489.24 128.73 C 519.60 150.51 545.14 178.96 563.52 211.49 C 585.36 249.83 596.90 293.89 596.98 338.00 C 597.09 380.48 586.61 422.97 566.46 460.38 C 550.37 490.46 528.23 517.28 501.79 538.83 C 470.12 564.74 432.20 582.97 392.15 591.38 C 349.11 600.50 303.73 598.42 261.73 585.30 C 223.96 573.55 189.01 552.91 160.39 525.61 C 127.46 494.27 102.93 454.13 90.37 410.42 C 78.22 368.51 76.97 323.51 86.69 280.97 C 94.52 246.58 109.54 213.85 130.52 185.50 C 153.38 154.41 183.29 128.55 217.36 110.41 C 249.18 93.42 284.62 83.29 320.61 80.84 M 340.23 93.79 C 333.63 102.26 326.28 110.14 319.23 118.24 C 318.52 119.01 318.18 119.92 318.20 120.98 C 318.00 126.27 318.74 131.54 319.70 136.73 C 320.12 136.67 320.97 136.57 321.39 136.52 C 327.79 130.75 334.48 125.29 340.77 119.40 C 341.53 119.44 342.30 119.49 343.07 119.53 C 348.89 125.04 355.24 129.97 361.00 135.56 C 361.53 135.46 362.58 135.27 363.11 135.17 C 363.21 132.00 363.26 128.82 363.51 125.65 C 363.75 121.77 365.03 117.79 363.57 113.99 C 356.06 107.53 349.43 100.11 342.22 93.32 C 341.72 93.44 340.73 93.68 340.23 93.79 M 377.69 132.92 C 376.41 138.17 375.69 143.58 376.36 148.97 C 380.82 152.36 384.94 156.18 389.19 159.83 C 390.37 155.30 391.90 150.31 390.38 145.71 C 387.49 141.90 384.36 138.28 381.42 134.52 C 380.61 133.20 379.01 133.25 377.69 132.92 M 291.29 147.76 C 291.92 151.52 293.12 155.14 294.05 158.82 C 295.23 158.55 296.50 158.34 297.40 157.43 C 300.79 154.37 304.20 151.32 307.76 148.45 C 308.17 142.93 307.44 137.36 305.43 132.18 C 300.88 137.52 296.27 142.82 291.29 147.76 M 323.40 164.06 C 323.31 170.00 324.34 175.88 325.12 181.75 C 326.55 193.62 327.81 205.51 329.52 217.34 C 326.94 217.49 324.36 217.63 321.79 217.70 C 319.44 204.94 317.13 192.18 314.69 179.44 C 314.35 177.54 314.22 175.61 314.05 173.69 C 313.69 173.65 312.97 173.57 312.61 173.52 C 309.13 176.68 305.46 179.61 302.00 182.80 C 304.85 195.19 309.33 207.14 312.74 219.38 C 300.92 222.41 289.11 226.17 278.65 232.59 C 272.98 224.20 267.94 215.36 263.08 206.49 C 257.89 204.68 252.44 206.58 247.14 206.68 C 254.02 216.18 261.26 225.40 268.31 234.77 C 268.96 235.72 269.77 236.68 269.67 237.91 C 267.90 239.80 265.52 241.03 262.88 240.78 C 254.50 230.34 245.40 220.47 236.89 210.13 C 235.84 209.12 234.88 207.37 233.19 207.63 C 228.05 207.90 222.94 208.56 217.79 208.72 C 214.71 209.38 211.55 209.51 208.41 209.56 C 208.04 216.90 208.03 224.26 208.23 231.60 C 220.91 240.56 233.35 249.86 245.94 258.95 C 244.16 261.16 242.44 263.44 240.88 265.81 C 236.85 264.19 233.33 261.62 229.66 259.37 C 221.74 254.35 213.76 249.43 205.83 244.43 C 205.84 249.91 205.06 255.40 205.74 260.87 C 211.01 262.41 215.77 265.23 220.74 267.51 C 225.42 269.88 230.31 271.87 234.75 274.71 C 228.62 284.21 223.81 294.73 221.18 305.75 C 208.59 304.94 196.56 300.04 183.96 299.24 C 180.88 303.07 177.50 306.64 174.52 310.55 C 180.17 311.12 185.81 311.79 191.45 312.46 C 200.28 313.98 209.42 313.89 218.11 316.05 C 218.62 318.23 217.61 320.54 217.44 322.75 C 207.82 323.10 198.27 321.66 188.67 321.58 C 181.01 320.86 173.27 319.93 165.59 320.54 C 159.45 327.35 153.61 334.44 147.41 341.20 C 151.50 346.56 156.31 351.30 160.53 356.56 C 179.40 353.95 198.29 351.42 217.15 348.70 C 217.33 351.84 217.52 354.98 217.61 358.12 C 201.99 361.18 186.34 364.14 170.80 367.53 C 172.96 371.31 176.31 374.18 178.80 377.72 C 181.60 377.87 184.46 378.11 187.22 377.47 C 198.16 374.46 208.95 370.91 219.97 368.18 C 220.82 371.52 221.81 374.83 222.78 378.14 C 225.83 386.87 229.84 395.22 234.59 403.14 C 228.87 406.12 223.01 408.83 217.21 411.63 C 213.11 413.58 209.13 415.87 204.75 417.14 C 203.04 422.46 204.09 428.11 203.91 433.59 C 208.80 432.17 212.74 428.80 217.07 426.28 C 225.02 421.48 232.63 416.11 240.83 411.74 C 242.46 414.25 244.34 416.58 246.01 419.07 C 232.42 428.71 219.03 438.63 205.55 448.44 C 205.67 456.66 206.43 464.85 206.80 473.06 C 215.14 473.13 223.47 473.47 231.76 474.41 C 242.86 461.72 253.58 448.69 264.84 436.15 C 266.86 437.68 268.89 439.20 270.89 440.76 C 262.69 452.02 253.73 462.73 245.93 474.26 C 245.32 474.57 244.71 474.88 244.10 475.20 C 249.74 475.73 255.36 476.64 261.04 476.49 C 266.78 466.03 273.30 456.02 279.01 445.55 C 289.59 451.13 300.81 455.69 312.58 458.03 C 309.18 470.11 305.31 482.06 301.64 494.06 C 305.15 497.36 308.72 500.60 312.47 503.64 C 312.86 503.59 313.65 503.48 314.05 503.42 C 316.09 488.73 319.09 474.16 321.90 459.60 C 324.18 460.35 327.87 459.36 329.18 461.69 C 327.08 478.60 325.07 495.51 322.98 512.42 C 326.77 516.81 331.65 520.14 335.86 524.13 C 337.71 525.47 339.19 527.91 341.70 527.89 C 343.73 528.14 345.12 526.47 346.54 525.33 C 350.76 521.39 355.30 517.81 359.45 513.81 C 358.05 506.63 358.11 499.27 356.81 492.08 C 355.94 481.22 354.30 470.44 353.43 459.57 C 355.76 459.11 357.85 460.07 359.59 461.55 L 359.03 458.44 L 361.44 458.69 C 365.50 473.62 366.71 489.24 370.66 504.20 C 374.25 501.01 377.81 497.78 381.66 494.91 C 381.59 493.48 381.56 492.03 381.17 490.65 C 377.71 479.33 374.42 467.96 370.98 456.63 C 382.17 453.11 393.10 448.60 403.05 442.34 C 404.33 445.42 406.13 448.24 407.85 451.10 C 413.00 459.37 417.46 468.10 422.96 476.14 C 427.84 476.33 432.70 475.15 437.61 475.28 C 437.55 474.48 437.50 473.68 437.45 472.89 C 433.30 468.14 429.75 462.91 425.87 457.95 C 420.77 451.00 415.29 444.33 410.43 437.21 C 412.10 435.98 413.77 434.74 415.44 433.50 C 415.83 433.51 416.60 433.53 416.99 433.54 C 428.21 446.98 439.87 460.04 451.04 473.51 C 459.86 473.35 468.60 471.79 477.42 471.38 C 478.52 463.58 478.17 455.75 477.70 447.92 C 462.82 437.17 447.83 426.55 433.27 415.38 C 434.95 413.35 436.57 411.29 438.08 409.14 C 442.13 410.23 445.34 413.06 448.90 415.13 C 459.09 421.32 468.96 428.03 479.34 433.88 C 479.25 428.92 480.39 423.99 480.06 419.05 C 478.93 417.17 476.52 416.60 474.71 415.55 C 464.39 410.91 454.50 405.34 444.04 401.03 C 444.72 398.85 445.61 396.73 446.71 394.73 C 450.59 387.58 453.45 379.93 455.79 372.15 C 456.17 370.34 457.33 368.22 455.46 366.68 C 456.79 366.20 458.31 365.83 459.68 366.49 C 469.78 370.19 480.00 373.61 490.15 377.17 C 492.72 378.11 495.48 377.89 498.16 377.73 C 500.79 374.19 503.94 371.08 506.75 367.70 C 499.69 365.46 492.37 364.25 485.19 362.47 C 476.97 360.72 468.88 358.26 460.54 357.19 C 460.02 354.03 460.08 350.81 460.35 347.63 C 478.93 350.79 497.58 353.78 516.24 356.40 C 519.84 353.29 522.49 349.24 525.82 345.86 C 527.26 344.08 530.18 341.58 527.90 339.26 C 522.34 333.01 516.78 326.75 511.45 320.30 C 506.33 320.41 501.20 320.44 496.10 321.00 C 491.18 321.79 486.18 321.80 481.23 322.32 C 473.74 322.42 466.34 324.23 458.83 323.49 C 458.71 321.18 458.59 318.89 458.46 316.59 C 472.98 314.35 487.63 312.88 502.08 310.27 C 499.86 306.56 496.54 303.75 494.03 300.27 C 487.39 299.33 481.06 301.80 474.73 303.33 C 468.48 304.63 462.45 307.00 456.09 307.72 C 454.20 298.35 450.21 289.54 445.85 281.09 C 444.97 279.49 445.26 277.64 445.27 275.90 C 452.43 273.03 459.17 269.26 466.15 266.01 C 471.64 263.25 477.35 260.91 482.62 257.74 C 482.11 252.79 481.64 247.84 481.46 242.87 C 476.99 244.63 473.17 247.55 469.09 250.00 C 458.97 256.31 448.88 262.64 438.77 268.96 C 436.86 266.84 435.12 264.59 433.45 262.28 C 449.01 250.56 465.03 239.46 480.54 227.67 C 480.19 220.36 479.37 213.08 479.36 205.76 C 471.22 204.78 463.03 204.30 454.86 203.69 C 452.26 203.19 450.86 205.76 449.33 207.35 C 438.80 219.83 427.97 232.05 417.52 244.60 C 417.08 244.59 416.21 244.58 415.78 244.57 C 414.51 243.52 413.24 242.48 411.97 241.46 C 412.26 240.08 412.45 238.61 413.43 237.51 C 420.79 227.87 428.06 218.15 435.44 208.52 C 436.84 206.66 438.01 204.64 439.22 202.65 C 434.31 202.52 429.45 201.73 424.55 201.62 C 422.19 203.38 421.16 206.31 419.59 208.71 C 414.18 217.73 409.16 227.00 403.36 235.77 C 393.47 229.10 382.26 224.45 370.80 221.23 C 373.87 210.85 376.96 200.48 380.08 190.12 C 380.68 186.91 382.27 182.34 378.84 180.19 C 376.01 177.90 373.28 175.48 370.61 173.01 C 368.74 179.79 367.86 186.78 366.47 193.67 C 365.06 202.00 363.23 210.27 362.08 218.65 C 359.15 218.60 356.22 218.26 353.36 217.63 C 355.11 199.66 357.28 181.75 359.29 163.82 C 358.33 162.14 356.73 160.99 355.30 159.75 C 350.74 156.05 346.64 151.80 341.87 148.37 C 335.32 153.09 329.76 159.07 323.40 164.06 M 166.39 193.64 C 166.53 196.11 166.61 198.59 166.66 201.08 C 173.02 205.64 179.08 210.65 185.79 214.69 C 185.49 205.96 186.43 197.25 187.62 188.63 C 197.06 187.57 206.65 188.08 215.95 185.98 C 212.80 181.86 209.14 178.17 205.92 174.11 C 204.58 172.62 203.40 170.81 201.54 169.92 C 196.64 169.36 191.68 169.99 186.78 169.37 C 180.04 168.38 173.21 168.97 166.43 168.68 C 165.76 176.96 165.31 185.37 166.39 193.64 M 219.06 169.66 C 222.88 174.65 226.39 179.91 230.56 184.61 C 232.69 184.95 234.87 184.77 237.03 184.77 L 237.85 185.42 C 241.72 184.43 245.82 184.86 249.61 183.56 C 246.34 179.18 243.89 174.28 241.09 169.62 C 233.77 168.61 226.36 168.40 219.06 169.66 M 442.25 169.75 C 440.65 173.38 438.50 176.72 436.64 180.21 C 443.27 180.27 449.97 181.82 456.55 180.42 C 459.54 177.02 461.96 173.17 464.79 169.64 C 457.30 168.65 449.71 168.32 442.25 169.75 M 480.87 170.47 C 477.68 174.53 474.18 178.34 470.96 182.37 C 473.24 182.71 475.52 183.03 477.81 183.28 C 485.30 183.52 492.74 184.49 500.23 184.67 C 500.84 193.48 500.79 202.30 500.95 211.12 C 501.49 211.24 502.57 211.47 503.11 211.58 C 507.61 207.80 512.60 204.67 517.20 201.02 C 517.65 190.23 519.18 179.36 517.52 168.60 C 513.01 169.75 508.35 169.34 503.75 169.44 C 496.13 169.94 488.38 168.93 480.87 170.47 M 512.79 220.46 L 512.77 222.09 C 510.20 224.97 506.42 226.41 503.30 228.63 C 503.52 235.09 503.26 241.61 504.58 247.98 C 506.76 246.39 509.11 245.05 511.51 243.82 C 512.59 236.80 513.54 229.76 514.85 222.77 C 515.24 221.36 513.69 220.98 512.79 220.46 M 172.46 244.16 C 176.08 246.00 179.79 247.70 183.50 249.37 C 183.48 242.97 184.88 236.63 184.20 230.23 L 184.72 230.30 C 179.01 228.71 174.69 224.36 169.40 221.86 C 169.80 229.36 171.18 236.77 172.46 244.16 M 144.28 290.28 C 142.35 291.23 141.05 293.09 139.50 294.53 C 136.57 297.71 132.97 300.33 130.87 304.19 C 136.88 305.61 143.09 306.17 149.25 305.70 C 152.71 301.18 156.69 297.10 160.26 292.68 C 155.16 290.89 149.73 289.41 144.28 290.28 M 516.97 292.62 C 520.32 297.10 524.04 301.31 527.83 305.42 C 533.88 306.71 540.23 305.27 546.26 304.20 C 543.00 298.72 537.48 295.10 533.45 290.22 C 527.81 289.55 522.27 290.81 516.97 292.62 M 118.62 316.46 C 110.71 324.16 102.74 331.81 94.45 339.09 C 94.31 340.51 94.20 341.94 94.10 343.37 C 101.18 350.23 108.69 356.63 115.63 363.63 C 121.67 362.92 127.59 361.31 133.68 361.16 C 133.61 360.61 133.48 359.50 133.41 358.95 C 128.19 353.07 122.78 347.32 118.00 341.06 C 123.92 334.96 129.13 328.22 134.93 322.01 C 136.13 320.78 137.11 319.35 137.93 317.85 C 131.47 317.63 125.10 316.29 118.62 316.46 M 547.35 317.34 C 544.61 317.54 541.88 317.66 539.16 317.83 C 539.86 319.09 540.60 320.35 541.58 321.43 C 547.49 327.87 553.05 334.60 558.94 341.05 C 553.99 348.19 547.18 353.87 542.52 361.23 C 548.89 361.24 555.10 362.77 561.39 363.64 C 564.38 360.57 567.55 357.67 570.79 354.85 C 575.20 351.01 579.12 346.63 583.75 343.04 C 583.53 342.03 583.95 340.74 583.12 339.97 C 575.11 331.92 566.71 324.28 558.48 316.46 C 554.75 316.55 550.99 316.47 547.35 317.34 M 134.13 375.78 C 134.28 376.82 134.43 377.86 134.60 378.90 C 139.53 381.67 143.58 385.72 148.41 388.62 C 151.66 389.48 154.94 388.30 157.99 387.26 C 154.16 383.10 150.46 378.82 146.97 374.38 C 142.63 373.70 138.31 374.69 134.13 375.78 M 530.49 374.17 C 527.40 377.62 524.47 381.22 521.32 384.61 C 521.26 385.86 521.23 387.11 521.20 388.36 C 523.84 388.49 526.75 389.51 529.28 388.33 C 534.88 384.72 539.77 380.06 545.58 376.75 C 540.70 375.17 535.69 373.68 530.49 374.17 M 181.45 429.27 C 179.10 430.11 176.81 431.08 174.51 432.04 C 172.62 439.53 172.18 447.27 170.90 454.86 C 175.24 452.57 179.37 449.91 183.40 447.12 C 182.32 441.00 182.51 434.78 182.24 428.60 C 182.04 428.77 181.65 429.10 181.45 429.27 M 502.45 448.95 C 505.66 450.55 508.65 452.53 511.79 454.25 C 512.29 446.93 510.50 439.76 509.59 432.55 C 507.19 431.31 504.77 430.11 502.33 428.98 C 502.13 435.63 501.78 442.32 502.45 448.95 M 171.23 473.54 C 170.63 473.65 169.42 473.88 168.81 473.99 C 168.58 476.72 168.43 479.45 168.29 482.19 C 168.48 490.88 167.48 499.51 167.59 508.19 C 170.58 508.29 173.57 508.07 176.52 507.49 C 181.40 507.64 186.25 507.09 191.11 506.91 C 195.53 507.56 199.97 507.10 204.36 506.42 C 207.50 502.77 210.50 498.98 213.88 495.53 C 204.61 493.46 194.91 494.38 185.60 492.44 C 185.41 488.73 185.00 485.05 184.73 481.36 C 184.31 475.56 184.86 469.66 183.42 463.97 C 179.84 467.75 175.19 470.21 171.23 473.54 M 499.89 465.20 C 499.74 470.56 499.97 475.96 499.12 481.27 C 498.96 484.65 499.25 488.02 499.36 491.40 C 489.41 492.63 479.42 493.36 469.44 494.34 C 472.41 498.59 476.11 502.26 479.21 506.42 C 488.83 506.40 498.39 507.43 508.01 507.49 C 510.80 507.55 513.60 507.54 516.41 507.48 C 516.13 504.01 515.73 500.52 516.01 497.04 C 516.70 489.33 515.16 481.68 515.16 473.98 C 514.55 473.89 513.34 473.70 512.73 473.61 C 508.35 471.00 504.92 466.53 499.89 465.20 M 228.85 496.42 C 226.29 499.78 223.39 502.93 221.62 506.80 C 225.61 506.77 229.62 506.78 233.56 507.52 C 236.69 507.58 239.81 507.55 242.94 507.40 C 244.33 504.23 246.15 501.27 248.16 498.45 C 244.15 497.41 239.98 497.58 235.91 496.97 C 233.57 496.62 231.20 496.51 228.85 496.42 M 435.78 497.77 C 437.31 501.09 439.25 504.19 440.97 507.40 C 448.93 507.18 457.15 509.60 464.93 507.15 L 462.68 506.57 C 460.00 503.39 457.73 499.88 455.21 496.58 C 454.69 496.38 453.64 495.98 453.12 495.78 C 447.36 496.61 441.50 496.55 435.78 497.77 M 293.88 519.20 C 292.66 522.83 291.80 526.61 292.26 530.46 C 297.15 534.73 300.39 540.80 306.03 544.18 C 307.16 539.11 308.31 533.94 307.69 528.72 C 303.90 525.91 300.42 522.73 297.03 519.46 C 295.98 519.37 294.93 519.28 293.88 519.20 M 385.54 520.60 C 381.99 523.99 377.81 526.74 374.78 530.65 C 376.39 535.38 376.64 540.43 377.91 545.25 C 382.15 543.19 384.15 538.58 387.34 535.34 C 389.03 532.83 392.47 530.68 391.78 527.26 C 391.35 524.61 390.50 522.04 390.05 519.40 C 388.43 519.25 386.66 519.19 385.54 520.60 M 319.66 540.41 C 318.94 545.91 317.98 551.38 317.57 556.92 C 325.43 566.04 333.52 574.99 341.17 584.30 C 349.14 577.75 355.89 569.82 363.65 563.02 C 363.80 557.89 364.27 552.56 362.63 547.62 L 363.28 547.39 C 362.72 545.36 362.38 543.28 362.13 541.20 C 356.08 546.15 350.40 551.55 344.28 556.42 C 341.25 558.10 338.17 555.92 336.09 553.80 C 331.18 549.29 325.96 545.14 321.18 540.49 C 320.67 540.45 320.16 540.43 319.66 540.41 Z" />
<path fill="#ffffff" opacity="1.00" d=" M 518.15 107.36 C 522.80 104.49 527.44 101.58 532.16 98.81 C 530.28 103.92 528.44 109.05 526.56 114.15 C 523.79 111.84 520.97 109.60 518.15 107.36 Z" />
<path fill="#ffffff" opacity="1.00" d=" M 112.13 125.14 C 116.59 121.97 123.29 127.88 120.81 132.73 C 119.03 136.29 115.91 138.91 113.36 141.89 C 110.22 139.02 107.08 136.14 103.90 133.31 C 106.61 130.57 108.93 127.36 112.13 125.14 Z" />
<path fill="#ffffff" opacity="1.00" d=" M 72.07 178.09 C 75.65 174.63 82.37 178.08 82.10 182.92 C 81.37 187.18 78.62 190.69 76.51 194.36 C 73.09 192.02 69.15 190.44 65.92 187.86 C 67.41 184.32 69.36 180.83 72.07 178.09 Z" />
<path fill="#ffffff" opacity="1.00" d=" M 324.15 229.79 C 329.13 229.32 334.11 228.90 339.10 228.57 C 340.90 228.73 342.69 228.94 344.49 229.17 C 366.72 229.91 388.45 238.29 405.98 251.88 C 422.51 264.85 435.38 282.50 442.24 302.39 C 445.98 313.50 448.57 325.20 447.84 336.99 C 449.38 367.26 436.10 397.49 414.15 418.14 C 398.37 433.36 377.79 443.54 356.13 446.90 C 349.85 448.28 343.40 447.69 337.04 447.87 C 327.08 448.72 317.17 446.56 307.63 443.90 C 275.87 434.82 248.99 410.42 236.79 379.75 C 233.04 370.68 230.77 361.06 229.62 351.33 C 228.97 339.11 228.75 326.69 231.45 314.68 C 236.43 291.90 249.02 270.90 266.64 255.64 C 282.75 241.69 302.98 232.44 324.15 229.79 M 269.76 275.81 C 258.02 288.67 249.98 304.87 246.93 322.02 C 245.50 328.20 246.80 334.59 245.54 340.78 C 245.57 350.74 247.76 360.56 250.78 370.00 C 254.92 381.03 260.90 391.41 268.74 400.22 C 283.11 416.65 303.43 427.62 325.02 430.78 C 352.52 434.99 381.58 425.92 401.91 406.96 C 416.45 393.50 426.55 375.31 430.12 355.81 C 431.45 348.36 430.24 340.74 431.55 333.30 C 430.23 305.13 415.05 278.13 391.84 262.16 C 376.77 251.74 358.46 245.20 340.00 246.15 C 337.05 246.15 334.13 245.68 331.19 245.76 C 307.89 247.49 285.44 258.49 269.76 275.81 Z" />
<path fill="#ffffff" opacity="1.00" d=" M 300.44 264.94 C 311.94 259.82 324.48 255.29 337.24 256.50 C 337.16 276.12 337.20 295.74 337.22 315.35 C 332.95 316.23 328.72 317.29 324.62 318.79 C 316.42 301.64 308.83 284.21 300.62 267.07 C 300.55 266.36 300.50 265.64 300.44 264.94 Z" />
<path fill="#ffffff" opacity="1.00" d=" M 340.70 256.37 C 352.91 255.68 364.92 259.55 375.87 264.67 C 375.84 267.43 376.20 270.38 374.86 272.92 C 367.54 288.39 360.69 304.09 353.24 319.50 C 349.35 317.23 344.86 316.48 340.56 315.39 C 342.18 306.32 339.93 297.19 340.92 288.07 C 340.74 277.53 340.70 266.94 340.70 256.37 Z" />
<path fill="#ffffff" opacity="1.00" d=" M 628.97 267.01 C 633.11 266.06 637.26 265.13 641.41 264.18 C 642.22 268.10 643.62 272.01 643.46 276.06 C 642.72 280.76 635.89 282.85 632.81 279.17 C 630.14 275.70 630.10 271.08 628.97 267.01 Z" />
<path fill="#ffffff" opacity="1.00" d=" M 357.55 321.13 C 365.48 303.39 373.66 285.75 381.89 268.15 C 391.62 274.26 400.39 282.12 406.61 291.85 C 397.16 302.01 388.07 312.49 378.63 322.66 C 375.00 326.81 371.46 331.10 367.20 334.65 C 365.66 329.04 360.77 325.53 357.55 321.13 Z" />
<path fill="#ffffff" opacity="1.00" d=" M 291.52 270.51 C 293.06 269.12 295.17 269.23 297.10 269.16 C 304.63 286.64 313.01 303.74 320.74 321.13 C 317.27 323.82 313.97 326.83 311.86 330.74 C 311.39 332.08 309.22 333.82 308.10 332.11 C 300.28 323.53 292.51 314.89 284.72 306.28 C 280.42 301.07 275.23 296.60 271.35 291.06 C 272.22 288.35 274.57 286.48 276.27 284.29 C 280.62 278.94 286.01 274.58 291.52 270.51 Z" />
<path fill="#ffffff" opacity="1.00" d=" M 265.97 298.96 C 266.72 297.52 267.76 296.28 268.83 295.07 C 281.63 309.46 294.48 323.84 307.67 337.89 C 307.48 343.01 307.29 348.14 307.46 353.26 C 303.13 354.54 298.79 355.78 294.59 357.43 C 291.98 355.76 289.67 353.70 287.49 351.52 C 277.44 342.17 267.28 332.94 257.33 323.48 C 258.82 314.90 261.86 306.62 265.97 298.96 Z" />
<path fill="#ffffff" opacity="1.00" d=" M 372.23 336.31 C 384.59 322.79 396.74 309.09 409.14 295.61 C 414.20 304.63 419.54 314.57 418.72 325.24 C 407.43 335.14 396.60 345.56 385.56 355.74 C 380.07 356.65 374.88 354.66 369.74 353.08 C 369.92 349.01 369.78 344.94 369.55 340.88 C 369.36 338.93 371.19 337.72 372.23 336.31 Z" />
<path fill="#ffffff" opacity="1.00" d=" M 631.25 329.38 C 636.48 331.08 641.63 333.00 646.87 334.65 C 641.64 336.49 636.45 338.39 631.25 340.30 C 631.25 336.66 631.24 333.02 631.25 329.38 Z" />
<path fill="#ffffff" opacity="1.00" d=" M 301.82 359.46 C 304.16 358.60 306.62 358.27 309.10 358.18 C 313.27 370.53 325.99 379.22 339.00 378.77 C 352.30 379.00 364.34 369.56 368.77 357.27 C 378.91 360.32 388.94 363.77 399.08 366.84 C 402.98 368.10 406.89 369.33 410.74 370.74 C 400.39 380.69 388.42 389.09 374.93 394.18 C 366.31 397.33 357.29 400.15 348.01 399.88 C 339.58 399.82 331.12 400.15 322.69 399.60 C 301.31 396.23 281.30 385.72 265.73 370.77 C 277.65 366.67 289.84 363.39 301.82 359.46 Z" />
<path fill="#ffffff" opacity="1.00" d=" M 264.66 375.87 C 271.17 381.61 278.12 387.03 285.86 391.02 C 283.52 392.59 281.24 394.25 278.96 395.92 C 273.12 390.07 268.69 383.04 264.66 375.87 Z" />
<path fill="#ffffff" opacity="1.00" d=" M 392.19 390.89 C 399.00 386.09 406.25 381.63 411.76 375.27 C 409.87 382.82 404.17 388.67 399.47 394.64 C 399.05 394.60 398.21 394.52 397.79 394.48 C 396.00 393.16 394.13 391.96 392.19 390.89 Z" />
<path fill="#ffffff" opacity="1.00" d=" M 282.17 399.08 C 284.77 397.21 287.35 395.33 289.97 393.48 C 296.75 396.93 303.97 399.34 311.14 401.83 C 307.97 405.33 304.78 408.89 301.08 411.84 C 293.87 409.33 287.91 403.99 282.17 399.08 Z" />
<path fill="#ffffff" opacity="1.00" d=" M 382.58 395.63 C 384.42 394.84 386.16 393.59 388.21 393.43 C 391.14 394.43 393.28 396.90 395.66 398.79 C 389.73 403.49 383.90 408.44 377.02 411.74 C 373.70 408.37 370.28 405.09 367.06 401.62 C 372.22 399.58 377.62 398.16 382.58 395.63 Z" />
<path fill="#ffffff" opacity="1.00" d=" M 633.23 394.47 C 637.14 395.32 641.05 396.16 644.96 397.04 C 643.86 401.26 643.50 405.73 641.81 409.77 C 639.28 415.01 629.48 411.97 630.83 406.08 C 631.40 402.17 632.45 398.34 633.23 394.47 Z" />
<path fill="#ffffff" opacity="1.00" d=" M 344.06 404.98 C 349.85 404.56 355.74 404.38 361.32 402.62 C 365.29 406.02 368.96 409.77 372.55 413.57 C 371.14 414.63 369.53 415.37 367.89 415.98 C 359.21 419.12 350.01 421.32 340.73 420.60 C 341.72 415.68 340.31 410.72 340.72 405.77 C 341.83 405.51 342.95 405.25 344.06 404.98 Z" />
<path fill="#ffffff" opacity="1.00" d=" M 314.98 404.36 C 320.35 403.95 325.80 404.06 331.10 405.10 C 332.63 405.14 334.15 405.14 335.68 405.15 C 336.01 410.37 335.89 415.61 335.82 420.84 C 330.49 420.78 325.14 420.45 319.93 419.24 C 315.02 417.90 310.07 416.59 305.50 414.27 C 308.65 410.96 312.06 407.89 314.98 404.36 Z" />
<path fill="#ffffff" opacity="1.00" d=" M 50.17 455.93 C 49.58 451.17 55.74 447.40 59.69 450.19 C 63.26 453.00 64.07 457.82 66.01 461.71 C 62.09 463.34 58.20 465.06 54.28 466.69 C 52.89 463.12 50.89 459.73 50.17 455.93 Z" />
<path fill="#ffffff" opacity="1.00" d=" M 202.57 597.93 C 205.84 599.53 209.08 601.17 212.31 602.86 C 208.23 606.51 204.40 610.42 200.38 614.14 C 201.13 608.73 201.84 603.33 202.57 597.93 Z" />
</g>
<g id="#022d72ff">
<path fill="#022d72" opacity="1.00" d=" M 331.66 0.00 L 345.37 0.00 C 403.60 1.24 461.51 17.47 511.52 47.43 C 575.12 85.08 625.75 144.14 653.06 212.84 C 667.50 248.69 675.38 287.06 677.00 325.65 L 677.00 351.34 C 675.36 391.73 666.78 431.88 651.09 469.16 C 624.59 532.84 578.02 587.89 519.72 624.73 C 469.56 656.70 410.81 674.76 351.40 677.00 L 325.64 677.00 C 283.47 675.27 241.59 665.91 202.93 648.92 C 138.47 620.82 83.30 572.06 47.46 511.58 C 17.48 461.56 1.24 403.63 0.00 345.38 L 0.00 331.76 C 0.71 306.80 3.73 281.88 9.77 257.63 C 22.72 204.36 49.09 154.47 85.57 113.57 C 122.08 72.46 168.73 40.40 220.27 21.25 C 255.85 7.91 293.71 0.96 331.66 0.00 M 319.58 8.85 C 260.11 12.09 201.71 32.02 152.59 65.68 C 118.73 88.78 89.22 118.22 66.06 152.04 C 39.59 190.59 21.41 234.82 13.34 280.89 C 5.74 323.82 6.73 368.22 16.23 410.76 C 26.98 459.02 48.81 504.77 79.58 543.47 C 124.02 599.85 187.30 641.16 256.96 658.68 C 300.31 669.77 345.93 671.81 390.13 664.87 C 431.45 658.41 471.52 643.96 507.41 622.48 C 568.44 586.25 617.25 529.85 644.15 464.15 C 677.50 383.81 677.08 290.23 642.96 210.21 C 615.10 143.88 564.81 87.31 502.30 51.71 C 447.27 20.09 382.92 5.07 319.58 8.85 Z" />
<path fill="#022d72" opacity="1.00" d=" M 394.68 23.50 C 406.41 26.24 418.15 28.97 429.86 31.82 C 429.22 34.54 428.58 37.25 427.87 39.95 C 423.65 38.91 419.41 37.96 415.18 36.96 C 412.40 48.50 409.75 60.08 406.97 71.63 C 403.75 70.87 400.52 70.11 397.31 69.33 C 400.07 57.77 402.77 46.20 405.52 34.64 C 401.24 33.67 396.96 32.68 392.71 31.59 C 393.39 28.90 394.06 26.20 394.68 23.50 Z" />
<path fill="#022d72" opacity="1.00" d=" M 245.67 32.38 C 256.38 29.73 267.07 27.01 277.78 24.38 C 278.46 27.10 279.14 29.82 279.82 32.55 C 272.34 34.43 264.84 36.25 257.37 38.19 C 258.15 41.09 258.89 43.99 259.61 46.91 C 266.45 45.19 273.29 43.48 280.14 41.78 C 280.77 44.31 281.40 46.83 282.04 49.36 C 275.17 50.97 268.34 52.75 261.49 54.44 C 262.32 57.83 263.14 61.22 264.13 64.57 C 271.70 62.58 279.31 60.74 286.91 58.84 C 287.59 61.57 288.27 64.30 288.91 67.03 C 278.06 69.73 267.21 72.41 256.35 75.08 C 252.84 60.83 249.30 46.60 245.67 32.38 Z" />
<path fill="#022d72" opacity="1.00" d=" M 337.66 35.70 C 338.90 33.19 340.15 30.68 341.44 28.20 C 342.73 30.72 344.00 33.25 345.26 35.78 C 347.98 36.15 350.70 36.54 353.43 36.95 C 351.43 38.97 349.42 40.97 347.43 42.98 C 347.92 45.71 348.36 48.44 348.88 51.16 C 346.37 49.83 343.86 48.49 341.35 47.17 C 338.90 48.52 336.42 49.80 333.95 51.11 C 334.45 48.31 334.91 45.51 335.37 42.70 C 333.34 40.80 331.30 38.91 329.32 36.96 C 332.10 36.51 334.88 36.09 337.66 35.70 Z" />
<path fill="#022d72" opacity="1.00" d=" M 461.10 42.81 C 468.29 46.37 475.55 49.79 482.75 53.32 C 485.56 54.67 487.98 56.93 489.19 59.85 C 492.44 67.24 486.59 77.46 478.10 76.88 C 484.29 83.79 476.14 91.56 476.06 99.02 C 473.09 97.55 470.08 96.18 467.13 94.68 C 467.89 89.41 471.76 84.64 470.80 79.17 C 468.16 74.83 462.47 74.06 458.42 71.48 C 455.82 76.55 453.40 81.70 450.95 86.85 C 447.94 85.47 444.97 83.99 441.99 82.55 C 448.28 69.27 454.76 56.07 461.10 42.81 M 461.49 65.01 C 465.34 66.73 469.00 68.93 473.00 70.31 C 478.34 72.01 482.66 63.17 478.06 60.00 C 474.47 57.67 470.44 56.14 466.63 54.23 C 464.99 57.86 463.14 61.39 461.49 65.01 Z" />
<path fill="#022d72" opacity="1.00" d=" M 202.18 49.41 C 204.98 48.00 207.78 46.62 210.57 45.20 C 217.26 58.29 223.96 71.38 230.55 84.52 C 227.62 85.88 224.83 87.56 221.81 88.73 C 218.11 87.12 214.88 84.62 211.37 82.65 C 205.03 78.70 198.43 75.13 192.29 70.85 C 196.73 79.59 201.16 88.35 205.68 97.06 C 202.92 98.56 200.11 99.97 197.29 101.35 C 190.74 88.22 183.93 75.22 177.41 62.07 C 180.29 60.58 183.16 59.05 186.06 57.58 C 195.83 63.47 205.58 69.39 215.36 75.26 C 210.99 66.63 206.69 57.97 202.18 49.41 Z" />
<path fill="#022d72" opacity="1.00" d=" M 316.53 72.84 C 356.60 69.58 397.45 75.25 434.93 89.87 C 473.99 104.94 509.34 129.48 537.26 160.68 C 562.42 188.72 581.56 222.16 592.89 258.11 C 606.34 300.62 608.83 346.52 600.24 390.26 C 592.51 429.95 575.47 467.77 550.95 499.91 C 528.36 529.70 499.41 554.64 466.61 572.58 C 433.88 590.59 397.28 601.47 360.05 604.38 C 315.73 607.97 270.50 600.39 229.92 582.17 C 193.69 566.04 161.19 541.66 135.51 511.44 C 98.95 468.75 76.51 414.20 72.66 358.11 C 69.73 318.03 75.84 277.26 90.77 239.93 C 104.40 205.70 125.21 174.32 151.56 148.56 C 195.39 104.98 254.91 77.67 316.53 72.84 M 320.61 80.84 C 284.62 83.29 249.18 93.42 217.36 110.41 C 183.29 128.55 153.38 154.41 130.52 185.50 C 109.54 213.85 94.52 246.58 86.69 280.97 C 76.97 323.51 78.22 368.51 90.37 410.42 C 102.93 454.13 127.46 494.27 160.39 525.61 C 189.01 552.91 223.96 573.55 261.73 585.30 C 303.73 598.42 349.11 600.50 392.15 591.38 C 432.20 582.97 470.12 564.74 501.79 538.83 C 528.23 517.28 550.37 490.46 566.46 460.38 C 586.61 422.97 597.09 380.48 596.98 338.00 C 596.90 293.89 585.36 249.83 563.52 211.49 C 545.14 178.96 519.60 150.51 489.24 128.73 C 440.92 93.69 380.12 76.53 320.61 80.84 Z" />
<path fill="#022d72" opacity="1.00" d=" M 139.62 88.53 C 142.25 86.50 144.86 84.45 147.46 82.40 C 156.50 93.98 165.40 105.69 174.44 117.28 C 171.83 119.35 169.19 121.38 166.59 123.44 C 157.56 111.84 148.63 100.15 139.62 88.53 Z" />
<path fill="#022d72" opacity="1.00" d=" M 494.72 110.52 C 508.37 102.75 521.84 94.64 535.48 86.84 C 538.06 88.97 540.68 91.03 543.26 93.15 C 538.26 108.02 533.35 122.93 528.35 137.80 C 525.70 135.60 523.00 133.47 520.35 131.27 C 521.54 128.09 522.69 124.91 523.91 121.75 C 519.78 118.28 515.55 114.94 511.37 111.54 C 508.43 113.37 505.49 115.19 502.50 116.92 C 499.92 114.77 497.27 112.69 494.72 110.52 M 518.15 107.36 C 520.97 109.60 523.79 111.84 526.56 114.15 C 528.44 109.05 530.28 103.92 532.16 98.81 C 527.44 101.58 522.80 104.49 518.15 107.36 Z" />
<path fill="#022d72" opacity="1.00" d=" M 112.38 115.55 C 122.17 112.27 133.21 123.07 129.98 132.93 C 128.12 138.78 122.93 142.57 119.18 147.16 C 123.01 150.75 126.99 154.17 130.72 157.87 C 128.43 160.23 126.19 162.65 124.04 165.14 C 113.18 155.20 102.25 145.34 91.44 135.36 C 95.75 130.70 99.99 125.97 104.29 121.30 C 106.54 118.85 109.09 116.47 112.38 115.55 M 112.13 125.14 C 108.93 127.36 106.61 130.57 103.90 133.31 C 107.08 136.14 110.22 139.02 113.36 141.89 C 115.91 138.91 119.03 136.29 120.81 132.73 C 123.29 127.88 116.59 121.97 112.13 125.14 Z" />
<path fill="#022d72" opacity="1.00" d=" M 544.19 154.32 C 555.76 145.27 567.34 136.23 578.91 127.17 C 580.94 129.75 582.97 132.34 584.96 134.96 C 581.01 145.69 577.08 156.42 573.19 167.17 C 580.75 161.06 588.53 155.23 596.10 149.13 C 598.02 151.62 599.97 154.08 601.87 156.58 C 590.28 165.60 578.76 174.70 567.14 183.68 C 565.12 181.11 563.11 178.54 561.10 175.98 C 564.96 165.23 568.92 154.51 572.86 143.78 C 565.24 149.76 557.59 155.72 549.98 161.71 C 548.01 159.28 546.08 156.82 544.19 154.32 Z" />
<path fill="#022d72" opacity="1.00" d=" M 64.02 175.00 C 66.44 170.74 70.83 167.14 75.93 167.20 C 83.39 167.04 91.12 173.17 91.02 180.99 C 90.87 187.56 86.24 192.68 83.39 198.26 C 87.89 200.90 92.42 203.49 96.92 206.13 C 95.28 209.03 93.60 211.90 91.88 214.75 C 79.23 207.33 66.51 200.02 53.82 192.67 C 57.18 186.75 60.61 180.88 64.02 175.00 M 72.07 178.09 C 69.36 180.83 67.41 184.32 65.92 187.86 C 69.15 190.44 73.09 192.02 76.51 194.36 C 78.62 190.69 81.37 187.18 82.10 182.92 C 82.37 178.08 75.65 174.63 72.07 178.09 Z" />
<path fill="#022d72" opacity="1.00" d=" M 603.49 200.07 C 604.78 193.84 612.10 190.40 617.96 192.11 C 623.38 193.61 627.23 198.38 629.31 203.40 C 631.27 208.18 632.20 213.93 629.58 218.66 C 628.29 221.30 625.71 222.88 623.35 224.43 C 621.90 221.59 620.55 218.71 619.21 215.83 C 620.63 214.41 622.40 213.00 622.71 210.87 C 623.08 207.55 621.48 204.17 619.06 201.96 C 617.02 200.00 612.74 200.99 612.35 203.91 C 612.12 211.40 616.31 218.79 614.12 226.26 C 611.73 234.20 600.61 236.77 594.40 231.71 C 588.28 226.87 584.66 218.89 584.89 211.11 C 585.00 205.59 588.78 200.87 593.62 198.55 C 595.00 201.45 596.35 204.36 597.73 207.26 C 596.02 208.59 593.89 209.88 593.41 212.17 C 592.59 216.54 594.62 221.19 597.95 224.01 C 600.12 226.07 604.54 225.13 605.08 221.98 C 606.03 214.62 601.73 207.45 603.49 200.07 Z" />
<path fill="#022d72" opacity="1.00" d=" M 36.19 234.99 C 37.32 231.87 38.45 228.76 39.61 225.66 C 53.42 230.61 67.19 235.68 81.03 240.52 C 79.94 243.67 78.81 246.81 77.62 249.93 C 63.81 244.95 49.98 240.02 36.19 234.99 Z" />
<path fill="#022d72" opacity="1.00" d=" M 603.88 262.38 C 618.22 259.23 632.53 256.00 646.87 252.82 C 648.32 259.18 649.69 265.55 651.16 271.91 C 651.90 275.18 652.08 278.68 650.92 281.87 C 647.57 291.45 632.45 293.89 626.55 285.50 C 623.16 280.60 622.88 274.42 621.42 268.81 C 616.26 269.68 611.19 270.95 606.09 272.08 C 605.34 268.85 604.59 265.62 603.88 262.38 M 628.97 267.01 C 630.10 271.08 630.14 275.70 632.81 279.17 C 635.89 282.85 642.72 280.76 643.46 276.06 C 643.62 272.01 642.22 268.10 641.41 264.18 C 637.26 265.13 633.11 266.06 628.97 267.01 Z" />
<path fill="#022d72" opacity="1.00" d=" M 62.15 271.62 C 64.89 272.06 67.63 272.55 70.36 273.04 C 68.65 283.31 66.72 293.55 64.94 303.81 C 50.51 301.23 36.07 298.66 21.64 296.09 C 22.17 292.82 22.74 289.55 23.31 286.29 C 35.01 288.43 46.72 290.44 58.42 292.58 C 59.67 285.59 60.88 278.60 62.15 271.62 Z" />
<path fill="#022d72" opacity="1.00" d=" M 613.74 313.50 C 628.46 318.85 643.18 324.19 657.93 329.44 C 658.03 332.84 658.01 336.25 658.09 339.66 C 643.57 345.33 629.05 350.99 614.57 356.75 C 614.26 353.32 614.18 349.87 614.26 346.43 C 617.52 345.28 620.77 344.10 624.01 342.91 C 623.71 337.57 623.71 332.23 623.76 326.89 C 620.46 325.77 617.15 324.67 613.84 323.62 C 613.72 320.25 613.73 316.87 613.74 313.50 M 631.25 329.38 C 631.24 333.02 631.25 336.66 631.25 340.30 C 636.45 338.39 641.64 336.49 646.87 334.65 C 641.63 333.00 636.48 331.08 631.25 329.38 Z" />
<path fill="#022d72" opacity="1.00" d=" M 19.29 331.25 C 33.96 331.21 48.62 331.83 63.29 331.79 C 63.12 335.11 63.00 338.44 63.02 341.77 C 48.32 341.43 33.62 341.39 18.93 340.96 C 19.00 337.72 19.21 334.48 19.29 331.25 Z" />
<path fill="#022d72" opacity="1.00" d=" M 20.89 377.54 C 35.32 374.85 49.78 372.34 64.20 369.64 C 64.82 372.92 65.42 376.20 65.96 379.49 C 59.76 380.49 53.59 381.69 47.41 382.80 C 48.49 388.49 49.48 394.21 50.51 399.92 C 56.70 398.81 62.89 397.65 69.08 396.56 C 69.67 399.80 70.25 403.04 70.89 406.27 C 56.43 408.93 41.98 411.60 27.50 414.09 C 26.92 410.85 26.33 407.61 25.75 404.37 C 31.22 403.43 36.67 402.41 42.12 401.43 C 41.38 395.68 40.14 390.02 39.18 384.31 C 33.67 385.25 28.17 386.28 22.67 387.28 C 22.06 384.03 21.47 380.79 20.89 377.54 Z" />
<path fill="#022d72" opacity="1.00" d=" M 609.54 389.33 C 610.23 386.08 610.93 382.85 611.62 379.61 C 625.95 382.77 640.30 385.79 654.62 388.98 C 653.14 396.36 651.41 403.69 649.90 411.06 C 649.18 414.93 647.34 418.91 643.75 420.87 C 637.29 424.81 627.01 421.45 625.62 413.58 C 624.32 415.00 622.96 416.59 620.98 416.98 C 615.19 418.43 609.43 415.32 603.61 416.61 C 604.31 413.36 605.03 410.11 605.72 406.86 C 611.16 406.36 617.44 409.64 622.32 406.30 C 625.04 402.45 624.98 397.36 626.17 392.92 C 620.62 391.76 615.08 390.51 609.54 389.33 M 633.23 394.47 C 632.45 398.34 631.40 402.17 630.83 406.08 C 629.48 411.97 639.28 415.01 641.81 409.77 C 643.50 405.73 643.86 401.26 644.96 397.04 C 641.05 396.16 637.14 395.32 633.23 394.47 Z" />
<path fill="#022d72" opacity="1.00" d=" M 43.89 445.82 C 48.40 439.98 57.77 437.45 63.94 442.17 C 69.19 446.19 70.39 453.08 73.32 458.65 C 78.06 456.51 82.85 454.49 87.65 452.48 C 88.93 455.52 90.23 458.56 91.55 461.59 C 78.04 467.40 64.53 473.20 50.98 478.90 C 48.32 472.53 45.49 466.23 42.87 459.85 C 41.02 455.37 40.95 449.85 43.89 445.82 M 50.17 455.93 C 50.89 459.73 52.89 463.12 54.28 466.69 C 58.20 465.06 62.09 463.34 66.01 461.71 C 64.07 457.82 63.26 453.00 59.69 450.19 C 55.74 447.40 49.58 451.17 50.17 455.93 Z" />
<path fill="#022d72" opacity="1.00" d=" M 595.00 440.66 C 608.28 446.89 621.58 453.11 634.90 459.29 C 630.33 469.32 625.59 479.28 620.95 489.28 C 618.42 488.09 615.89 486.91 613.36 485.73 C 616.50 478.70 619.89 471.78 623.08 464.77 C 620.33 463.50 617.61 462.20 614.86 460.97 C 611.94 467.39 608.91 473.77 605.93 480.18 C 603.56 479.07 601.20 477.95 598.85 476.82 C 601.86 470.43 604.85 464.04 607.79 457.62 C 604.66 456.21 601.55 454.73 598.45 453.25 C 595.09 460.36 591.76 467.49 588.43 474.62 C 585.88 473.44 583.34 472.27 580.81 471.08 C 585.52 460.93 590.29 450.81 595.00 440.66 Z" />
<path fill="#022d72" opacity="1.00" d=" M 567.39 493.11 C 579.11 501.96 590.58 511.15 602.21 520.13 C 600.23 522.72 598.22 525.29 596.20 527.84 C 584.77 526.67 573.33 525.47 561.91 524.22 C 569.72 530.10 577.36 536.21 585.09 542.20 C 583.11 544.62 581.19 547.09 579.33 549.61 C 567.77 540.51 556.11 531.56 544.56 522.45 C 546.57 519.84 548.57 517.22 550.64 514.66 C 561.96 515.93 573.29 517.09 584.61 518.30 C 577.00 512.32 569.35 506.41 561.72 500.46 C 563.57 497.98 565.48 495.55 567.39 493.11 Z" />
<path fill="#022d72" opacity="1.00" d=" M 95.41 508.83 C 97.27 506.65 99.06 504.42 100.89 502.21 C 101.55 504.95 102.18 507.69 102.85 510.43 C 105.48 511.42 108.10 512.44 110.71 513.49 C 108.34 514.94 105.97 516.38 103.57 517.79 C 103.32 520.60 103.18 523.41 102.97 526.23 C 100.82 524.38 98.69 522.53 96.47 520.77 C 93.85 521.52 91.21 522.21 88.57 522.87 C 89.57 520.28 90.64 517.72 91.74 515.18 C 90.23 512.84 88.72 510.51 87.24 508.16 C 89.97 508.31 92.69 508.52 95.41 508.83 Z" />
<path fill="#022d72" opacity="1.00" d=" M 147.28 549.02 C 149.04 546.81 150.80 544.62 152.62 542.47 C 160.71 549.03 168.86 555.50 176.93 562.09 C 167.73 573.56 158.47 584.98 149.25 596.44 C 146.69 594.34 144.11 592.26 141.55 590.16 C 148.94 580.86 156.46 571.67 163.86 562.38 C 158.33 557.93 152.80 553.49 147.28 549.02 Z" />
<path fill="#022d72" opacity="1.00" d=" M 502.84 562.02 C 506.75 552.19 518.66 545.92 528.89 549.42 C 539.62 553.05 547.57 564.54 546.17 575.95 C 544.93 586.05 535.23 594.25 525.13 594.19 C 520.58 594.18 516.47 591.90 513.15 588.97 C 515.59 586.96 518.07 584.98 520.50 582.95 C 522.22 583.75 523.89 584.92 525.86 585.00 C 532.56 585.79 538.77 578.61 536.91 572.09 C 535.33 566.19 531.10 560.85 525.53 558.26 C 520.12 555.78 513.33 559.08 511.30 564.50 C 510.25 567.72 511.63 570.97 512.98 573.86 C 510.47 575.84 508.00 577.86 505.56 579.91 C 502.09 574.74 500.49 567.97 502.84 562.02 Z" />
<path fill="#022d72" opacity="1.00" d=" M 195.83 575.16 C 198.91 576.68 201.98 578.22 205.05 579.78 C 204.53 583.19 204.08 586.63 203.60 590.05 C 208.44 592.44 213.25 594.88 218.09 597.28 C 220.51 594.85 222.91 592.41 225.45 590.11 C 228.49 591.58 231.52 593.09 234.50 594.70 C 222.86 605.25 211.30 615.89 199.78 626.55 C 196.77 625.01 193.75 623.51 190.73 622.00 C 192.50 606.39 194.09 590.77 195.83 575.16 M 202.57 597.93 C 201.84 603.33 201.13 608.73 200.38 614.14 C 204.40 610.42 208.23 606.51 212.31 602.86 C 209.08 601.17 205.84 599.53 202.57 597.93 Z" />
<path fill="#022d72" opacity="1.00" d=" M 455.66 588.05 C 458.61 586.52 461.59 585.06 464.62 583.70 C 466.85 588.12 469.03 592.55 471.14 597.02 C 472.03 599.38 474.44 600.45 476.40 601.77 C 483.64 606.39 490.89 610.98 498.06 615.70 C 495.64 618.34 491.54 619.07 488.49 621.00 C 482.97 617.29 477.35 613.74 471.81 610.05 C 471.47 616.67 470.81 623.27 470.45 629.89 C 467.17 631.58 463.85 633.20 460.48 634.70 C 461.26 625.41 462.06 616.13 462.87 606.85 C 462.93 605.17 463.21 603.39 462.40 601.85 C 460.29 597.18 457.91 592.65 455.66 588.05 Z" />
<path fill="#022d72" opacity="1.00" d=" M 255.11 601.75 C 265.94 604.55 276.84 607.05 287.66 609.86 C 284.13 624.10 280.55 638.34 277.12 652.61 C 266.43 649.90 255.70 647.36 245.02 644.63 C 245.69 641.92 246.38 639.21 247.06 636.51 C 254.52 638.42 262.03 640.15 269.50 642.05 C 270.18 639.13 270.87 636.21 271.61 633.30 C 264.77 631.55 257.91 629.87 251.07 628.15 C 251.69 625.63 252.29 623.10 252.91 620.59 C 259.77 622.30 266.63 624.05 273.52 625.66 C 274.37 622.29 275.16 618.92 275.98 615.56 C 268.33 613.78 260.72 611.80 253.10 609.89 C 253.77 607.17 254.44 604.46 255.11 601.75 Z" />
<path fill="#022d72" opacity="1.00" d=" M 318.65 615.52 C 325.61 611.85 334.46 612.10 341.49 615.48 C 346.65 618.03 349.46 623.64 349.39 629.28 C 346.16 629.26 342.94 629.07 339.72 628.99 C 339.92 620.39 327.61 618.11 322.47 623.45 C 320.82 625.56 322.09 628.59 324.30 629.71 C 330.37 633.07 338.10 632.75 343.55 637.40 C 348.96 641.72 348.30 650.86 343.08 655.07 C 337.15 660.04 328.39 659.88 321.45 657.32 C 316.15 655.35 312.72 649.86 313.12 644.24 C 316.22 644.20 319.31 644.33 322.41 644.51 C 323.02 651.08 331.76 653.34 336.40 649.48 C 337.74 647.93 338.20 644.97 336.18 643.79 C 329.96 640.11 321.89 640.53 316.19 635.81 C 309.61 630.72 311.45 619.17 318.65 615.52 Z" />
<path fill="#022d72" opacity="1.00" d=" M 396.22 624.17 C 398.39 622.50 400.55 620.81 402.71 619.11 C 402.97 621.92 403.06 624.74 403.09 627.57 C 405.37 629.06 407.64 630.59 409.88 632.16 C 407.21 633.06 404.55 633.95 401.89 634.85 C 401.14 637.54 400.37 640.24 399.58 642.93 C 397.90 640.71 396.26 638.47 394.66 636.22 C 391.84 636.25 389.03 636.25 386.22 636.26 C 387.85 634.02 389.47 631.77 391.05 629.50 C 390.08 626.89 389.15 624.27 388.24 621.65 C 390.90 622.48 393.56 623.32 396.22 624.17 Z" />
</g>
</svg>
